<mxfile host="Electron" modified="2023-09-07T12:20:40.677Z" agent="Mozilla/5.0 (Windows NT 10.0; Win64; x64) AppleWebKit/537.36 (KHTML, like Gecko) draw.io/21.6.8 Chrome/114.0.5735.289 Electron/25.5.0 Safari/537.36" etag="364AHgfy8wrpq2OMkGLm" version="21.6.8" type="device">
  <diagram name="Page-1" id="5-LbWeO0C4fJTHnNgXyO">
    <mxGraphModel dx="2934" dy="-363" grid="0" gridSize="10" guides="1" tooltips="1" connect="1" arrows="1" fold="1" page="1" pageScale="1" pageWidth="850" pageHeight="1100" math="0" shadow="0">
      <root>
        <mxCell id="0" />
        <mxCell id="1" parent="0" />
        <mxCell id="xN8ztFlUW3zWDU8yaepD-1" value="content_type" style="swimlane;fontStyle=0;childLayout=stackLayout;horizontal=1;startSize=30;horizontalStack=0;resizeParent=1;resizeParentMax=0;resizeLast=0;collapsible=1;marginBottom=0;whiteSpace=wrap;html=1;fillColor=#dae8fc;strokeColor=#6c8ebf;" parent="1" vertex="1">
          <mxGeometry x="-1659" y="1216" width="140" height="270" as="geometry" />
        </mxCell>
        <mxCell id="xN8ztFlUW3zWDU8yaepD-2" value="type_id (PK)" style="text;strokeColor=#666666;fillColor=#f5f5f5;align=left;verticalAlign=middle;spacingLeft=4;spacingRight=4;overflow=hidden;points=[[0,0.5],[1,0.5]];portConstraint=eastwest;rotatable=0;whiteSpace=wrap;html=1;fontColor=#333333;" parent="xN8ztFlUW3zWDU8yaepD-1" vertex="1">
          <mxGeometry y="30" width="140" height="30" as="geometry" />
        </mxCell>
        <mxCell id="xN8ztFlUW3zWDU8yaepD-3" value="type_name" style="text;strokeColor=#666666;fillColor=#f5f5f5;align=left;verticalAlign=middle;spacingLeft=4;spacingRight=4;overflow=hidden;points=[[0,0.5],[1,0.5]];portConstraint=eastwest;rotatable=0;whiteSpace=wrap;html=1;fontColor=#333333;" parent="xN8ztFlUW3zWDU8yaepD-1" vertex="1">
          <mxGeometry y="60" width="140" height="30" as="geometry" />
        </mxCell>
        <mxCell id="fd54uzVnLHC7MYWZy6Tg-1" value="data_status" style="text;strokeColor=#666666;fillColor=#f5f5f5;align=left;verticalAlign=middle;spacingLeft=4;spacingRight=4;overflow=hidden;points=[[0,0.5],[1,0.5]];portConstraint=eastwest;rotatable=0;whiteSpace=wrap;html=1;fontColor=#333333;" parent="xN8ztFlUW3zWDU8yaepD-1" vertex="1">
          <mxGeometry y="90" width="140" height="30" as="geometry" />
        </mxCell>
        <mxCell id="fd54uzVnLHC7MYWZy6Tg-2" value="ip:" style="text;strokeColor=#666666;fillColor=#f5f5f5;align=left;verticalAlign=middle;spacingLeft=4;spacingRight=4;overflow=hidden;points=[[0,0.5],[1,0.5]];portConstraint=eastwest;rotatable=0;whiteSpace=wrap;html=1;fontColor=#333333;" parent="xN8ztFlUW3zWDU8yaepD-1" vertex="1">
          <mxGeometry y="120" width="140" height="30" as="geometry" />
        </mxCell>
        <mxCell id="xN8ztFlUW3zWDU8yaepD-4" value="created_by" style="text;strokeColor=#666666;fillColor=#f5f5f5;align=left;verticalAlign=middle;spacingLeft=4;spacingRight=4;overflow=hidden;points=[[0,0.5],[1,0.5]];portConstraint=eastwest;rotatable=0;whiteSpace=wrap;html=1;fontColor=#333333;" parent="xN8ztFlUW3zWDU8yaepD-1" vertex="1">
          <mxGeometry y="150" width="140" height="30" as="geometry" />
        </mxCell>
        <mxCell id="xN8ztFlUW3zWDU8yaepD-5" value="created_at" style="text;strokeColor=#666666;fillColor=#f5f5f5;align=left;verticalAlign=middle;spacingLeft=4;spacingRight=4;overflow=hidden;points=[[0,0.5],[1,0.5]];portConstraint=eastwest;rotatable=0;whiteSpace=wrap;html=1;fontColor=#333333;" parent="xN8ztFlUW3zWDU8yaepD-1" vertex="1">
          <mxGeometry y="180" width="140" height="30" as="geometry" />
        </mxCell>
        <mxCell id="xN8ztFlUW3zWDU8yaepD-6" value="updated_by" style="text;strokeColor=#666666;fillColor=#f5f5f5;align=left;verticalAlign=middle;spacingLeft=4;spacingRight=4;overflow=hidden;points=[[0,0.5],[1,0.5]];portConstraint=eastwest;rotatable=0;whiteSpace=wrap;html=1;fontColor=#333333;" parent="xN8ztFlUW3zWDU8yaepD-1" vertex="1">
          <mxGeometry y="210" width="140" height="30" as="geometry" />
        </mxCell>
        <mxCell id="xN8ztFlUW3zWDU8yaepD-7" value="updated_at" style="text;strokeColor=#666666;fillColor=#f5f5f5;align=left;verticalAlign=middle;spacingLeft=4;spacingRight=4;overflow=hidden;points=[[0,0.5],[1,0.5]];portConstraint=eastwest;rotatable=0;whiteSpace=wrap;html=1;fontColor=#333333;" parent="xN8ztFlUW3zWDU8yaepD-1" vertex="1">
          <mxGeometry y="240" width="140" height="30" as="geometry" />
        </mxCell>
        <mxCell id="SeWDoffmmrJIWWmNtRnC-64" value="&lt;font style=&quot;font-size: 41px;&quot;&gt;Content Module&lt;/font&gt;" style="text;html=1;align=center;verticalAlign=middle;whiteSpace=wrap;rounded=0;fillColor=#f5f5f5;fontColor=#333333;strokeColor=#666666;" parent="1" vertex="1">
          <mxGeometry x="-1671" y="1124" width="773" height="60" as="geometry" />
        </mxCell>
        <mxCell id="fd54uzVnLHC7MYWZy6Tg-3" value="content&lt;br&gt;" style="swimlane;fontStyle=0;childLayout=stackLayout;horizontal=1;startSize=30;horizontalStack=0;resizeParent=1;resizeParentMax=0;resizeLast=0;collapsible=1;marginBottom=0;whiteSpace=wrap;html=1;fillColor=#dae8fc;strokeColor=#6c8ebf;" parent="1" vertex="1">
          <mxGeometry x="-1509.5" y="1216" width="140" height="360" as="geometry" />
        </mxCell>
        <mxCell id="fd54uzVnLHC7MYWZy6Tg-4" value="content_id (PK)" style="text;strokeColor=#666666;fillColor=#f5f5f5;align=left;verticalAlign=middle;spacingLeft=4;spacingRight=4;overflow=hidden;points=[[0,0.5],[1,0.5]];portConstraint=eastwest;rotatable=0;whiteSpace=wrap;html=1;fontColor=#333333;" parent="fd54uzVnLHC7MYWZy6Tg-3" vertex="1">
          <mxGeometry y="30" width="140" height="30" as="geometry" />
        </mxCell>
        <mxCell id="fd54uzVnLHC7MYWZy6Tg-6" value="user_id (FK)" style="text;strokeColor=#666666;fillColor=#f5f5f5;align=left;verticalAlign=middle;spacingLeft=4;spacingRight=4;overflow=hidden;points=[[0,0.5],[1,0.5]];portConstraint=eastwest;rotatable=0;whiteSpace=wrap;html=1;fontColor=#333333;" parent="fd54uzVnLHC7MYWZy6Tg-3" vertex="1">
          <mxGeometry y="60" width="140" height="30" as="geometry" />
        </mxCell>
        <mxCell id="fd54uzVnLHC7MYWZy6Tg-136" value="privacy_id" style="text;strokeColor=#666666;fillColor=#f5f5f5;align=left;verticalAlign=middle;spacingLeft=4;spacingRight=4;overflow=hidden;points=[[0,0.5],[1,0.5]];portConstraint=eastwest;rotatable=0;whiteSpace=wrap;html=1;fontColor=#333333;" parent="fd54uzVnLHC7MYWZy6Tg-3" vertex="1">
          <mxGeometry y="90" width="140" height="30" as="geometry" />
        </mxCell>
        <mxCell id="Q-SCWLnYImMcxiPHVHH7-59" value="group_id (fk)" style="text;strokeColor=#666666;fillColor=#f5f5f5;align=left;verticalAlign=middle;spacingLeft=4;spacingRight=4;overflow=hidden;points=[[0,0.5],[1,0.5]];portConstraint=eastwest;rotatable=0;whiteSpace=wrap;html=1;fontColor=#333333;" parent="fd54uzVnLHC7MYWZy6Tg-3" vertex="1">
          <mxGeometry y="120" width="140" height="30" as="geometry" />
        </mxCell>
        <mxCell id="Q-SCWLnYImMcxiPHVHH7-60" value="page_id(fk)" style="text;strokeColor=#666666;fillColor=#f5f5f5;align=left;verticalAlign=middle;spacingLeft=4;spacingRight=4;overflow=hidden;points=[[0,0.5],[1,0.5]];portConstraint=eastwest;rotatable=0;whiteSpace=wrap;html=1;fontColor=#333333;" parent="fd54uzVnLHC7MYWZy6Tg-3" vertex="1">
          <mxGeometry y="150" width="140" height="30" as="geometry" />
        </mxCell>
        <mxCell id="fd54uzVnLHC7MYWZy6Tg-12" value="data_status" style="text;strokeColor=#666666;fillColor=#f5f5f5;align=left;verticalAlign=middle;spacingLeft=4;spacingRight=4;overflow=hidden;points=[[0,0.5],[1,0.5]];portConstraint=eastwest;rotatable=0;whiteSpace=wrap;html=1;fontColor=#333333;" parent="fd54uzVnLHC7MYWZy6Tg-3" vertex="1">
          <mxGeometry y="180" width="140" height="30" as="geometry" />
        </mxCell>
        <mxCell id="fd54uzVnLHC7MYWZy6Tg-7" value="ip:" style="text;strokeColor=#666666;fillColor=#f5f5f5;align=left;verticalAlign=middle;spacingLeft=4;spacingRight=4;overflow=hidden;points=[[0,0.5],[1,0.5]];portConstraint=eastwest;rotatable=0;whiteSpace=wrap;html=1;fontColor=#333333;" parent="fd54uzVnLHC7MYWZy6Tg-3" vertex="1">
          <mxGeometry y="210" width="140" height="30" as="geometry" />
        </mxCell>
        <mxCell id="fd54uzVnLHC7MYWZy6Tg-8" value="created_by" style="text;strokeColor=#666666;fillColor=#f5f5f5;align=left;verticalAlign=middle;spacingLeft=4;spacingRight=4;overflow=hidden;points=[[0,0.5],[1,0.5]];portConstraint=eastwest;rotatable=0;whiteSpace=wrap;html=1;fontColor=#333333;" parent="fd54uzVnLHC7MYWZy6Tg-3" vertex="1">
          <mxGeometry y="240" width="140" height="30" as="geometry" />
        </mxCell>
        <mxCell id="fd54uzVnLHC7MYWZy6Tg-9" value="created_at" style="text;strokeColor=#666666;fillColor=#f5f5f5;align=left;verticalAlign=middle;spacingLeft=4;spacingRight=4;overflow=hidden;points=[[0,0.5],[1,0.5]];portConstraint=eastwest;rotatable=0;whiteSpace=wrap;html=1;fontColor=#333333;" parent="fd54uzVnLHC7MYWZy6Tg-3" vertex="1">
          <mxGeometry y="270" width="140" height="30" as="geometry" />
        </mxCell>
        <mxCell id="fd54uzVnLHC7MYWZy6Tg-10" value="updated_by" style="text;strokeColor=#666666;fillColor=#f5f5f5;align=left;verticalAlign=middle;spacingLeft=4;spacingRight=4;overflow=hidden;points=[[0,0.5],[1,0.5]];portConstraint=eastwest;rotatable=0;whiteSpace=wrap;html=1;fontColor=#333333;" parent="fd54uzVnLHC7MYWZy6Tg-3" vertex="1">
          <mxGeometry y="300" width="140" height="30" as="geometry" />
        </mxCell>
        <mxCell id="fd54uzVnLHC7MYWZy6Tg-11" value="updated_at" style="text;strokeColor=#666666;fillColor=#f5f5f5;align=left;verticalAlign=middle;spacingLeft=4;spacingRight=4;overflow=hidden;points=[[0,0.5],[1,0.5]];portConstraint=eastwest;rotatable=0;whiteSpace=wrap;html=1;fontColor=#333333;" parent="fd54uzVnLHC7MYWZy6Tg-3" vertex="1">
          <mxGeometry y="330" width="140" height="30" as="geometry" />
        </mxCell>
        <mxCell id="fd54uzVnLHC7MYWZy6Tg-15" value="content_details" style="swimlane;fontStyle=0;childLayout=stackLayout;horizontal=1;startSize=30;horizontalStack=0;resizeParent=1;resizeParentMax=0;resizeLast=0;collapsible=1;marginBottom=0;whiteSpace=wrap;html=1;fillColor=#dae8fc;strokeColor=#6c8ebf;" parent="1" vertex="1">
          <mxGeometry x="-1357" y="1216" width="140" height="450" as="geometry" />
        </mxCell>
        <mxCell id="fd54uzVnLHC7MYWZy6Tg-16" value="content_details_id" style="text;strokeColor=#666666;fillColor=#f5f5f5;align=left;verticalAlign=middle;spacingLeft=4;spacingRight=4;overflow=hidden;points=[[0,0.5],[1,0.5]];portConstraint=eastwest;rotatable=0;whiteSpace=wrap;html=1;fontColor=#333333;" parent="fd54uzVnLHC7MYWZy6Tg-15" vertex="1">
          <mxGeometry y="30" width="140" height="30" as="geometry" />
        </mxCell>
        <mxCell id="fd54uzVnLHC7MYWZy6Tg-17" value="contentType_id (FK)" style="text;strokeColor=#666666;fillColor=#f5f5f5;align=left;verticalAlign=middle;spacingLeft=4;spacingRight=4;overflow=hidden;points=[[0,0.5],[1,0.5]];portConstraint=eastwest;rotatable=0;whiteSpace=wrap;html=1;fontColor=#333333;" parent="fd54uzVnLHC7MYWZy6Tg-15" vertex="1">
          <mxGeometry y="60" width="140" height="30" as="geometry" />
        </mxCell>
        <mxCell id="fd54uzVnLHC7MYWZy6Tg-42" value="feelings_id" style="text;strokeColor=#666666;fillColor=#f5f5f5;align=left;verticalAlign=middle;spacingLeft=4;spacingRight=4;overflow=hidden;points=[[0,0.5],[1,0.5]];portConstraint=eastwest;rotatable=0;whiteSpace=wrap;html=1;fontColor=#333333;" parent="fd54uzVnLHC7MYWZy6Tg-15" vertex="1">
          <mxGeometry y="90" width="140" height="30" as="geometry" />
        </mxCell>
        <mxCell id="jYQdoo0Zff-4ryKH4e4E-1" value="shared_content_id (FK)" style="text;strokeColor=#666666;fillColor=#f5f5f5;align=left;verticalAlign=middle;spacingLeft=4;spacingRight=4;overflow=hidden;points=[[0,0.5],[1,0.5]];portConstraint=eastwest;rotatable=0;whiteSpace=wrap;html=1;fontColor=#333333;" parent="fd54uzVnLHC7MYWZy6Tg-15" vertex="1">
          <mxGeometry y="120" width="140" height="30" as="geometry" />
        </mxCell>
        <mxCell id="fd54uzVnLHC7MYWZy6Tg-18" value="user_id (FK)" style="text;strokeColor=#666666;fillColor=#f5f5f5;align=left;verticalAlign=middle;spacingLeft=4;spacingRight=4;overflow=hidden;points=[[0,0.5],[1,0.5]];portConstraint=eastwest;rotatable=0;whiteSpace=wrap;html=1;fontColor=#333333;" parent="fd54uzVnLHC7MYWZy6Tg-15" vertex="1">
          <mxGeometry y="150" width="140" height="30" as="geometry" />
        </mxCell>
        <mxCell id="fd54uzVnLHC7MYWZy6Tg-69" value="content_id (FK)" style="text;strokeColor=#666666;fillColor=#f5f5f5;align=left;verticalAlign=middle;spacingLeft=4;spacingRight=4;overflow=hidden;points=[[0,0.5],[1,0.5]];portConstraint=eastwest;rotatable=0;whiteSpace=wrap;html=1;fontColor=#333333;" parent="fd54uzVnLHC7MYWZy6Tg-15" vertex="1">
          <mxGeometry y="180" width="140" height="30" as="geometry" />
        </mxCell>
        <mxCell id="fd54uzVnLHC7MYWZy6Tg-26" value="content" style="text;strokeColor=#666666;fillColor=#f5f5f5;align=left;verticalAlign=middle;spacingLeft=4;spacingRight=4;overflow=hidden;points=[[0,0.5],[1,0.5]];portConstraint=eastwest;rotatable=0;whiteSpace=wrap;html=1;fontColor=#333333;" parent="fd54uzVnLHC7MYWZy6Tg-15" vertex="1">
          <mxGeometry y="210" width="140" height="30" as="geometry" />
        </mxCell>
        <mxCell id="fd54uzVnLHC7MYWZy6Tg-28" value="description" style="text;strokeColor=#666666;fillColor=#f5f5f5;align=left;verticalAlign=middle;spacingLeft=4;spacingRight=4;overflow=hidden;points=[[0,0.5],[1,0.5]];portConstraint=eastwest;rotatable=0;whiteSpace=wrap;html=1;fontColor=#333333;" parent="fd54uzVnLHC7MYWZy6Tg-15" vertex="1">
          <mxGeometry y="240" width="140" height="30" as="geometry" />
        </mxCell>
        <mxCell id="fd54uzVnLHC7MYWZy6Tg-21" value="ip:" style="text;strokeColor=#666666;fillColor=#f5f5f5;align=left;verticalAlign=middle;spacingLeft=4;spacingRight=4;overflow=hidden;points=[[0,0.5],[1,0.5]];portConstraint=eastwest;rotatable=0;whiteSpace=wrap;html=1;fontColor=#333333;" parent="fd54uzVnLHC7MYWZy6Tg-15" vertex="1">
          <mxGeometry y="270" width="140" height="30" as="geometry" />
        </mxCell>
        <mxCell id="fd54uzVnLHC7MYWZy6Tg-20" value="data_status" style="text;strokeColor=#666666;fillColor=#f5f5f5;align=left;verticalAlign=middle;spacingLeft=4;spacingRight=4;overflow=hidden;points=[[0,0.5],[1,0.5]];portConstraint=eastwest;rotatable=0;whiteSpace=wrap;html=1;fontColor=#333333;" parent="fd54uzVnLHC7MYWZy6Tg-15" vertex="1">
          <mxGeometry y="300" width="140" height="30" as="geometry" />
        </mxCell>
        <mxCell id="fd54uzVnLHC7MYWZy6Tg-23" value="created_at" style="text;strokeColor=#666666;fillColor=#f5f5f5;align=left;verticalAlign=middle;spacingLeft=4;spacingRight=4;overflow=hidden;points=[[0,0.5],[1,0.5]];portConstraint=eastwest;rotatable=0;whiteSpace=wrap;html=1;fontColor=#333333;" parent="fd54uzVnLHC7MYWZy6Tg-15" vertex="1">
          <mxGeometry y="330" width="140" height="30" as="geometry" />
        </mxCell>
        <mxCell id="fd54uzVnLHC7MYWZy6Tg-25" value="updated_at" style="text;strokeColor=#666666;fillColor=#f5f5f5;align=left;verticalAlign=middle;spacingLeft=4;spacingRight=4;overflow=hidden;points=[[0,0.5],[1,0.5]];portConstraint=eastwest;rotatable=0;whiteSpace=wrap;html=1;fontColor=#333333;" parent="fd54uzVnLHC7MYWZy6Tg-15" vertex="1">
          <mxGeometry y="360" width="140" height="30" as="geometry" />
        </mxCell>
        <mxCell id="fd54uzVnLHC7MYWZy6Tg-24" value="updated_by" style="text;strokeColor=#666666;fillColor=#f5f5f5;align=left;verticalAlign=middle;spacingLeft=4;spacingRight=4;overflow=hidden;points=[[0,0.5],[1,0.5]];portConstraint=eastwest;rotatable=0;whiteSpace=wrap;html=1;fontColor=#333333;" parent="fd54uzVnLHC7MYWZy6Tg-15" vertex="1">
          <mxGeometry y="390" width="140" height="30" as="geometry" />
        </mxCell>
        <mxCell id="fd54uzVnLHC7MYWZy6Tg-22" value="created_by" style="text;strokeColor=#666666;fillColor=#f5f5f5;align=left;verticalAlign=middle;spacingLeft=4;spacingRight=4;overflow=hidden;points=[[0,0.5],[1,0.5]];portConstraint=eastwest;rotatable=0;whiteSpace=wrap;html=1;fontColor=#333333;" parent="fd54uzVnLHC7MYWZy6Tg-15" vertex="1">
          <mxGeometry y="420" width="140" height="30" as="geometry" />
        </mxCell>
        <mxCell id="fd54uzVnLHC7MYWZy6Tg-29" value="feelings" style="swimlane;fontStyle=0;childLayout=stackLayout;horizontal=1;startSize=30;horizontalStack=0;resizeParent=1;resizeParentMax=0;resizeLast=0;collapsible=1;marginBottom=0;whiteSpace=wrap;html=1;fillColor=#dae8fc;strokeColor=#6c8ebf;" parent="1" vertex="1">
          <mxGeometry x="-1195" y="1214" width="140" height="360" as="geometry" />
        </mxCell>
        <mxCell id="fd54uzVnLHC7MYWZy6Tg-30" value="feelings_id" style="text;strokeColor=#666666;fillColor=#f5f5f5;align=left;verticalAlign=middle;spacingLeft=4;spacingRight=4;overflow=hidden;points=[[0,0.5],[1,0.5]];portConstraint=eastwest;rotatable=0;whiteSpace=wrap;html=1;fontColor=#333333;" parent="fd54uzVnLHC7MYWZy6Tg-29" vertex="1">
          <mxGeometry y="30" width="140" height="30" as="geometry" />
        </mxCell>
        <mxCell id="fd54uzVnLHC7MYWZy6Tg-31" value="feelings_name" style="text;strokeColor=#666666;fillColor=#f5f5f5;align=left;verticalAlign=middle;spacingLeft=4;spacingRight=4;overflow=hidden;points=[[0,0.5],[1,0.5]];portConstraint=eastwest;rotatable=0;whiteSpace=wrap;html=1;fontColor=#333333;" parent="fd54uzVnLHC7MYWZy6Tg-29" vertex="1">
          <mxGeometry y="60" width="140" height="30" as="geometry" />
        </mxCell>
        <mxCell id="fd54uzVnLHC7MYWZy6Tg-32" value="feelings_emoji_id" style="text;strokeColor=#666666;fillColor=#f5f5f5;align=left;verticalAlign=middle;spacingLeft=4;spacingRight=4;overflow=hidden;points=[[0,0.5],[1,0.5]];portConstraint=eastwest;rotatable=0;whiteSpace=wrap;html=1;fontColor=#333333;" parent="fd54uzVnLHC7MYWZy6Tg-29" vertex="1">
          <mxGeometry y="90" width="140" height="30" as="geometry" />
        </mxCell>
        <mxCell id="fd54uzVnLHC7MYWZy6Tg-33" value="description" style="text;strokeColor=#666666;fillColor=#f5f5f5;align=left;verticalAlign=middle;spacingLeft=4;spacingRight=4;overflow=hidden;points=[[0,0.5],[1,0.5]];portConstraint=eastwest;rotatable=0;whiteSpace=wrap;html=1;fontColor=#333333;" parent="fd54uzVnLHC7MYWZy6Tg-29" vertex="1">
          <mxGeometry y="120" width="140" height="30" as="geometry" />
        </mxCell>
        <mxCell id="fd54uzVnLHC7MYWZy6Tg-34" value="user_id (FK)" style="text;strokeColor=#666666;fillColor=#f5f5f5;align=left;verticalAlign=middle;spacingLeft=4;spacingRight=4;overflow=hidden;points=[[0,0.5],[1,0.5]];portConstraint=eastwest;rotatable=0;whiteSpace=wrap;html=1;fontColor=#333333;" parent="fd54uzVnLHC7MYWZy6Tg-29" vertex="1">
          <mxGeometry y="150" width="140" height="30" as="geometry" />
        </mxCell>
        <mxCell id="fd54uzVnLHC7MYWZy6Tg-36" value="data_status" style="text;strokeColor=#666666;fillColor=#f5f5f5;align=left;verticalAlign=middle;spacingLeft=4;spacingRight=4;overflow=hidden;points=[[0,0.5],[1,0.5]];portConstraint=eastwest;rotatable=0;whiteSpace=wrap;html=1;fontColor=#333333;" parent="fd54uzVnLHC7MYWZy6Tg-29" vertex="1">
          <mxGeometry y="180" width="140" height="30" as="geometry" />
        </mxCell>
        <mxCell id="fd54uzVnLHC7MYWZy6Tg-37" value="ip:" style="text;strokeColor=#666666;fillColor=#f5f5f5;align=left;verticalAlign=middle;spacingLeft=4;spacingRight=4;overflow=hidden;points=[[0,0.5],[1,0.5]];portConstraint=eastwest;rotatable=0;whiteSpace=wrap;html=1;fontColor=#333333;" parent="fd54uzVnLHC7MYWZy6Tg-29" vertex="1">
          <mxGeometry y="210" width="140" height="30" as="geometry" />
        </mxCell>
        <mxCell id="fd54uzVnLHC7MYWZy6Tg-38" value="created_by" style="text;strokeColor=#666666;fillColor=#f5f5f5;align=left;verticalAlign=middle;spacingLeft=4;spacingRight=4;overflow=hidden;points=[[0,0.5],[1,0.5]];portConstraint=eastwest;rotatable=0;whiteSpace=wrap;html=1;fontColor=#333333;" parent="fd54uzVnLHC7MYWZy6Tg-29" vertex="1">
          <mxGeometry y="240" width="140" height="30" as="geometry" />
        </mxCell>
        <mxCell id="fd54uzVnLHC7MYWZy6Tg-39" value="created_at" style="text;strokeColor=#666666;fillColor=#f5f5f5;align=left;verticalAlign=middle;spacingLeft=4;spacingRight=4;overflow=hidden;points=[[0,0.5],[1,0.5]];portConstraint=eastwest;rotatable=0;whiteSpace=wrap;html=1;fontColor=#333333;" parent="fd54uzVnLHC7MYWZy6Tg-29" vertex="1">
          <mxGeometry y="270" width="140" height="30" as="geometry" />
        </mxCell>
        <mxCell id="fd54uzVnLHC7MYWZy6Tg-40" value="updated_by" style="text;strokeColor=#666666;fillColor=#f5f5f5;align=left;verticalAlign=middle;spacingLeft=4;spacingRight=4;overflow=hidden;points=[[0,0.5],[1,0.5]];portConstraint=eastwest;rotatable=0;whiteSpace=wrap;html=1;fontColor=#333333;" parent="fd54uzVnLHC7MYWZy6Tg-29" vertex="1">
          <mxGeometry y="300" width="140" height="30" as="geometry" />
        </mxCell>
        <mxCell id="fd54uzVnLHC7MYWZy6Tg-41" value="updated_at" style="text;strokeColor=#666666;fillColor=#f5f5f5;align=left;verticalAlign=middle;spacingLeft=4;spacingRight=4;overflow=hidden;points=[[0,0.5],[1,0.5]];portConstraint=eastwest;rotatable=0;whiteSpace=wrap;html=1;fontColor=#333333;" parent="fd54uzVnLHC7MYWZy6Tg-29" vertex="1">
          <mxGeometry y="330" width="140" height="30" as="geometry" />
        </mxCell>
        <mxCell id="fd54uzVnLHC7MYWZy6Tg-57" value="usertags" style="swimlane;fontStyle=0;childLayout=stackLayout;horizontal=1;startSize=30;horizontalStack=0;resizeParent=1;resizeParentMax=0;resizeLast=0;collapsible=1;marginBottom=0;whiteSpace=wrap;html=1;fillColor=#dae8fc;strokeColor=#6c8ebf;" parent="1" vertex="1">
          <mxGeometry x="-1671" y="1701.5" width="148.5" height="331" as="geometry" />
        </mxCell>
        <mxCell id="fd54uzVnLHC7MYWZy6Tg-58" value="tag_id (PK)" style="text;strokeColor=#666666;fillColor=#f5f5f5;align=left;verticalAlign=middle;spacingLeft=4;spacingRight=4;overflow=hidden;points=[[0,0.5],[1,0.5]];portConstraint=eastwest;rotatable=0;whiteSpace=wrap;html=1;fontColor=#333333;" parent="fd54uzVnLHC7MYWZy6Tg-57" vertex="1">
          <mxGeometry y="30" width="148.5" height="31" as="geometry" />
        </mxCell>
        <mxCell id="fd54uzVnLHC7MYWZy6Tg-59" value="content_id (FK)" style="text;strokeColor=#666666;fillColor=#f5f5f5;align=left;verticalAlign=middle;spacingLeft=4;spacingRight=4;overflow=hidden;points=[[0,0.5],[1,0.5]];portConstraint=eastwest;rotatable=0;whiteSpace=wrap;html=1;fontColor=#333333;" parent="fd54uzVnLHC7MYWZy6Tg-57" vertex="1">
          <mxGeometry y="61" width="148.5" height="30" as="geometry" />
        </mxCell>
        <mxCell id="spoWnkToUM-lE0BY_IcL-1" value="content_details_id (FK)" style="text;strokeColor=#666666;fillColor=#f5f5f5;align=left;verticalAlign=middle;spacingLeft=4;spacingRight=4;overflow=hidden;points=[[0,0.5],[1,0.5]];portConstraint=eastwest;rotatable=0;whiteSpace=wrap;html=1;fontColor=#333333;" vertex="1" parent="fd54uzVnLHC7MYWZy6Tg-57">
          <mxGeometry y="91" width="148.5" height="30" as="geometry" />
        </mxCell>
        <mxCell id="fd54uzVnLHC7MYWZy6Tg-61" value="connection_user_id (FK)" style="text;strokeColor=#666666;fillColor=#f5f5f5;align=left;verticalAlign=middle;spacingLeft=4;spacingRight=4;overflow=hidden;points=[[0,0.5],[1,0.5]];portConstraint=eastwest;rotatable=0;whiteSpace=wrap;html=1;fontColor=#333333;" parent="fd54uzVnLHC7MYWZy6Tg-57" vertex="1">
          <mxGeometry y="121" width="148.5" height="30" as="geometry" />
        </mxCell>
        <mxCell id="fd54uzVnLHC7MYWZy6Tg-62" value="data_status" style="text;strokeColor=#666666;fillColor=#f5f5f5;align=left;verticalAlign=middle;spacingLeft=4;spacingRight=4;overflow=hidden;points=[[0,0.5],[1,0.5]];portConstraint=eastwest;rotatable=0;whiteSpace=wrap;html=1;fontColor=#333333;" parent="fd54uzVnLHC7MYWZy6Tg-57" vertex="1">
          <mxGeometry y="151" width="148.5" height="30" as="geometry" />
        </mxCell>
        <mxCell id="fd54uzVnLHC7MYWZy6Tg-63" value="ip:" style="text;strokeColor=#666666;fillColor=#f5f5f5;align=left;verticalAlign=middle;spacingLeft=4;spacingRight=4;overflow=hidden;points=[[0,0.5],[1,0.5]];portConstraint=eastwest;rotatable=0;whiteSpace=wrap;html=1;fontColor=#333333;" parent="fd54uzVnLHC7MYWZy6Tg-57" vertex="1">
          <mxGeometry y="181" width="148.5" height="30" as="geometry" />
        </mxCell>
        <mxCell id="fd54uzVnLHC7MYWZy6Tg-64" value="created_by" style="text;strokeColor=#666666;fillColor=#f5f5f5;align=left;verticalAlign=middle;spacingLeft=4;spacingRight=4;overflow=hidden;points=[[0,0.5],[1,0.5]];portConstraint=eastwest;rotatable=0;whiteSpace=wrap;html=1;fontColor=#333333;" parent="fd54uzVnLHC7MYWZy6Tg-57" vertex="1">
          <mxGeometry y="211" width="148.5" height="30" as="geometry" />
        </mxCell>
        <mxCell id="fd54uzVnLHC7MYWZy6Tg-65" value="created_at" style="text;strokeColor=#666666;fillColor=#f5f5f5;align=left;verticalAlign=middle;spacingLeft=4;spacingRight=4;overflow=hidden;points=[[0,0.5],[1,0.5]];portConstraint=eastwest;rotatable=0;whiteSpace=wrap;html=1;fontColor=#333333;" parent="fd54uzVnLHC7MYWZy6Tg-57" vertex="1">
          <mxGeometry y="241" width="148.5" height="30" as="geometry" />
        </mxCell>
        <mxCell id="fd54uzVnLHC7MYWZy6Tg-66" value="updated_by" style="text;strokeColor=#666666;fillColor=#f5f5f5;align=left;verticalAlign=middle;spacingLeft=4;spacingRight=4;overflow=hidden;points=[[0,0.5],[1,0.5]];portConstraint=eastwest;rotatable=0;whiteSpace=wrap;html=1;fontColor=#333333;" parent="fd54uzVnLHC7MYWZy6Tg-57" vertex="1">
          <mxGeometry y="271" width="148.5" height="30" as="geometry" />
        </mxCell>
        <mxCell id="fd54uzVnLHC7MYWZy6Tg-67" value="updated_at" style="text;strokeColor=#666666;fillColor=#f5f5f5;align=left;verticalAlign=middle;spacingLeft=4;spacingRight=4;overflow=hidden;points=[[0,0.5],[1,0.5]];portConstraint=eastwest;rotatable=0;whiteSpace=wrap;html=1;fontColor=#333333;" parent="fd54uzVnLHC7MYWZy6Tg-57" vertex="1">
          <mxGeometry y="301" width="148.5" height="30" as="geometry" />
        </mxCell>
        <mxCell id="fd54uzVnLHC7MYWZy6Tg-70" value="reactions" style="swimlane;fontStyle=0;childLayout=stackLayout;horizontal=1;startSize=30;horizontalStack=0;resizeParent=1;resizeParentMax=0;resizeLast=0;collapsible=1;marginBottom=0;whiteSpace=wrap;html=1;fillColor=#dae8fc;strokeColor=#6c8ebf;" parent="1" vertex="1">
          <mxGeometry x="-1509" y="1701.5" width="148.5" height="391" as="geometry" />
        </mxCell>
        <mxCell id="fd54uzVnLHC7MYWZy6Tg-71" value="reactions_id (PK)" style="text;strokeColor=#666666;fillColor=#f5f5f5;align=left;verticalAlign=middle;spacingLeft=4;spacingRight=4;overflow=hidden;points=[[0,0.5],[1,0.5]];portConstraint=eastwest;rotatable=0;whiteSpace=wrap;html=1;fontColor=#333333;" parent="fd54uzVnLHC7MYWZy6Tg-70" vertex="1">
          <mxGeometry y="30" width="148.5" height="31" as="geometry" />
        </mxCell>
        <mxCell id="fd54uzVnLHC7MYWZy6Tg-72" value="content_id (FK)" style="text;strokeColor=#666666;fillColor=#f5f5f5;align=left;verticalAlign=middle;spacingLeft=4;spacingRight=4;overflow=hidden;points=[[0,0.5],[1,0.5]];portConstraint=eastwest;rotatable=0;whiteSpace=wrap;html=1;fontColor=#333333;" parent="fd54uzVnLHC7MYWZy6Tg-70" vertex="1">
          <mxGeometry y="61" width="148.5" height="30" as="geometry" />
        </mxCell>
        <mxCell id="jYQdoo0Zff-4ryKH4e4E-3" value="content_details_id (FK)" style="text;strokeColor=#666666;fillColor=#f5f5f5;align=left;verticalAlign=middle;spacingLeft=4;spacingRight=4;overflow=hidden;points=[[0,0.5],[1,0.5]];portConstraint=eastwest;rotatable=0;whiteSpace=wrap;html=1;fontColor=#333333;" parent="fd54uzVnLHC7MYWZy6Tg-70" vertex="1">
          <mxGeometry y="91" width="148.5" height="30" as="geometry" />
        </mxCell>
        <mxCell id="jYQdoo0Zff-4ryKH4e4E-2" value="comment_id (fk)" style="text;strokeColor=#666666;fillColor=#f5f5f5;align=left;verticalAlign=middle;spacingLeft=4;spacingRight=4;overflow=hidden;points=[[0,0.5],[1,0.5]];portConstraint=eastwest;rotatable=0;whiteSpace=wrap;html=1;fontColor=#333333;" parent="fd54uzVnLHC7MYWZy6Tg-70" vertex="1">
          <mxGeometry y="121" width="148.5" height="30" as="geometry" />
        </mxCell>
        <mxCell id="fd54uzVnLHC7MYWZy6Tg-73" value="react_type_id (FK)" style="text;strokeColor=#666666;fillColor=#f5f5f5;align=left;verticalAlign=middle;spacingLeft=4;spacingRight=4;overflow=hidden;points=[[0,0.5],[1,0.5]];portConstraint=eastwest;rotatable=0;whiteSpace=wrap;html=1;fontColor=#333333;" parent="fd54uzVnLHC7MYWZy6Tg-70" vertex="1">
          <mxGeometry y="151" width="148.5" height="30" as="geometry" />
        </mxCell>
        <mxCell id="fd54uzVnLHC7MYWZy6Tg-81" value="user_id(fk)" style="text;strokeColor=#666666;fillColor=#f5f5f5;align=left;verticalAlign=middle;spacingLeft=4;spacingRight=4;overflow=hidden;points=[[0,0.5],[1,0.5]];portConstraint=eastwest;rotatable=0;whiteSpace=wrap;html=1;fontColor=#333333;" parent="fd54uzVnLHC7MYWZy6Tg-70" vertex="1">
          <mxGeometry y="181" width="148.5" height="30" as="geometry" />
        </mxCell>
        <mxCell id="fd54uzVnLHC7MYWZy6Tg-74" value="data_status" style="text;strokeColor=#666666;fillColor=#f5f5f5;align=left;verticalAlign=middle;spacingLeft=4;spacingRight=4;overflow=hidden;points=[[0,0.5],[1,0.5]];portConstraint=eastwest;rotatable=0;whiteSpace=wrap;html=1;fontColor=#333333;" parent="fd54uzVnLHC7MYWZy6Tg-70" vertex="1">
          <mxGeometry y="211" width="148.5" height="30" as="geometry" />
        </mxCell>
        <mxCell id="fd54uzVnLHC7MYWZy6Tg-75" value="ip:" style="text;strokeColor=#666666;fillColor=#f5f5f5;align=left;verticalAlign=middle;spacingLeft=4;spacingRight=4;overflow=hidden;points=[[0,0.5],[1,0.5]];portConstraint=eastwest;rotatable=0;whiteSpace=wrap;html=1;fontColor=#333333;" parent="fd54uzVnLHC7MYWZy6Tg-70" vertex="1">
          <mxGeometry y="241" width="148.5" height="30" as="geometry" />
        </mxCell>
        <mxCell id="fd54uzVnLHC7MYWZy6Tg-76" value="created_by" style="text;strokeColor=#666666;fillColor=#f5f5f5;align=left;verticalAlign=middle;spacingLeft=4;spacingRight=4;overflow=hidden;points=[[0,0.5],[1,0.5]];portConstraint=eastwest;rotatable=0;whiteSpace=wrap;html=1;fontColor=#333333;" parent="fd54uzVnLHC7MYWZy6Tg-70" vertex="1">
          <mxGeometry y="271" width="148.5" height="30" as="geometry" />
        </mxCell>
        <mxCell id="fd54uzVnLHC7MYWZy6Tg-77" value="created_at" style="text;strokeColor=#666666;fillColor=#f5f5f5;align=left;verticalAlign=middle;spacingLeft=4;spacingRight=4;overflow=hidden;points=[[0,0.5],[1,0.5]];portConstraint=eastwest;rotatable=0;whiteSpace=wrap;html=1;fontColor=#333333;" parent="fd54uzVnLHC7MYWZy6Tg-70" vertex="1">
          <mxGeometry y="301" width="148.5" height="30" as="geometry" />
        </mxCell>
        <mxCell id="fd54uzVnLHC7MYWZy6Tg-78" value="updated_by" style="text;strokeColor=#666666;fillColor=#f5f5f5;align=left;verticalAlign=middle;spacingLeft=4;spacingRight=4;overflow=hidden;points=[[0,0.5],[1,0.5]];portConstraint=eastwest;rotatable=0;whiteSpace=wrap;html=1;fontColor=#333333;" parent="fd54uzVnLHC7MYWZy6Tg-70" vertex="1">
          <mxGeometry y="331" width="148.5" height="30" as="geometry" />
        </mxCell>
        <mxCell id="fd54uzVnLHC7MYWZy6Tg-79" value="updated_at" style="text;strokeColor=#666666;fillColor=#f5f5f5;align=left;verticalAlign=middle;spacingLeft=4;spacingRight=4;overflow=hidden;points=[[0,0.5],[1,0.5]];portConstraint=eastwest;rotatable=0;whiteSpace=wrap;html=1;fontColor=#333333;" parent="fd54uzVnLHC7MYWZy6Tg-70" vertex="1">
          <mxGeometry y="361" width="148.5" height="30" as="geometry" />
        </mxCell>
        <mxCell id="fd54uzVnLHC7MYWZy6Tg-93" value="reaction_type" style="swimlane;fontStyle=0;childLayout=stackLayout;horizontal=1;startSize=30;horizontalStack=0;resizeParent=1;resizeParentMax=0;resizeLast=0;collapsible=1;marginBottom=0;whiteSpace=wrap;html=1;fillColor=#dae8fc;strokeColor=#6c8ebf;" parent="1" vertex="1">
          <mxGeometry x="-1348.5" y="1701.5" width="140" height="300" as="geometry" />
        </mxCell>
        <mxCell id="fd54uzVnLHC7MYWZy6Tg-94" value="reactions_type_id (PK)" style="text;strokeColor=#666666;fillColor=#f5f5f5;align=left;verticalAlign=middle;spacingLeft=4;spacingRight=4;overflow=hidden;points=[[0,0.5],[1,0.5]];portConstraint=eastwest;rotatable=0;whiteSpace=wrap;html=1;fontColor=#333333;" parent="fd54uzVnLHC7MYWZy6Tg-93" vertex="1">
          <mxGeometry y="30" width="140" height="30" as="geometry" />
        </mxCell>
        <mxCell id="fd54uzVnLHC7MYWZy6Tg-95" value="reaction_type" style="text;strokeColor=#666666;fillColor=#f5f5f5;align=left;verticalAlign=middle;spacingLeft=4;spacingRight=4;overflow=hidden;points=[[0,0.5],[1,0.5]];portConstraint=eastwest;rotatable=0;whiteSpace=wrap;html=1;fontColor=#333333;" parent="fd54uzVnLHC7MYWZy6Tg-93" vertex="1">
          <mxGeometry y="60" width="140" height="30" as="geometry" />
        </mxCell>
        <mxCell id="fd54uzVnLHC7MYWZy6Tg-102" value="emoji_id" style="text;strokeColor=#666666;fillColor=#f5f5f5;align=left;verticalAlign=middle;spacingLeft=4;spacingRight=4;overflow=hidden;points=[[0,0.5],[1,0.5]];portConstraint=eastwest;rotatable=0;whiteSpace=wrap;html=1;fontColor=#333333;" parent="fd54uzVnLHC7MYWZy6Tg-93" vertex="1">
          <mxGeometry y="90" width="140" height="30" as="geometry" />
        </mxCell>
        <mxCell id="fd54uzVnLHC7MYWZy6Tg-96" value="data_status" style="text;strokeColor=#666666;fillColor=#f5f5f5;align=left;verticalAlign=middle;spacingLeft=4;spacingRight=4;overflow=hidden;points=[[0,0.5],[1,0.5]];portConstraint=eastwest;rotatable=0;whiteSpace=wrap;html=1;fontColor=#333333;" parent="fd54uzVnLHC7MYWZy6Tg-93" vertex="1">
          <mxGeometry y="120" width="140" height="30" as="geometry" />
        </mxCell>
        <mxCell id="fd54uzVnLHC7MYWZy6Tg-97" value="ip:" style="text;strokeColor=#666666;fillColor=#f5f5f5;align=left;verticalAlign=middle;spacingLeft=4;spacingRight=4;overflow=hidden;points=[[0,0.5],[1,0.5]];portConstraint=eastwest;rotatable=0;whiteSpace=wrap;html=1;fontColor=#333333;" parent="fd54uzVnLHC7MYWZy6Tg-93" vertex="1">
          <mxGeometry y="150" width="140" height="30" as="geometry" />
        </mxCell>
        <mxCell id="fd54uzVnLHC7MYWZy6Tg-98" value="created_by" style="text;strokeColor=#666666;fillColor=#f5f5f5;align=left;verticalAlign=middle;spacingLeft=4;spacingRight=4;overflow=hidden;points=[[0,0.5],[1,0.5]];portConstraint=eastwest;rotatable=0;whiteSpace=wrap;html=1;fontColor=#333333;" parent="fd54uzVnLHC7MYWZy6Tg-93" vertex="1">
          <mxGeometry y="180" width="140" height="30" as="geometry" />
        </mxCell>
        <mxCell id="fd54uzVnLHC7MYWZy6Tg-99" value="created_at" style="text;strokeColor=#666666;fillColor=#f5f5f5;align=left;verticalAlign=middle;spacingLeft=4;spacingRight=4;overflow=hidden;points=[[0,0.5],[1,0.5]];portConstraint=eastwest;rotatable=0;whiteSpace=wrap;html=1;fontColor=#333333;" parent="fd54uzVnLHC7MYWZy6Tg-93" vertex="1">
          <mxGeometry y="210" width="140" height="30" as="geometry" />
        </mxCell>
        <mxCell id="fd54uzVnLHC7MYWZy6Tg-100" value="updated_by" style="text;strokeColor=#666666;fillColor=#f5f5f5;align=left;verticalAlign=middle;spacingLeft=4;spacingRight=4;overflow=hidden;points=[[0,0.5],[1,0.5]];portConstraint=eastwest;rotatable=0;whiteSpace=wrap;html=1;fontColor=#333333;" parent="fd54uzVnLHC7MYWZy6Tg-93" vertex="1">
          <mxGeometry y="240" width="140" height="30" as="geometry" />
        </mxCell>
        <mxCell id="fd54uzVnLHC7MYWZy6Tg-101" value="updated_at" style="text;strokeColor=#666666;fillColor=#f5f5f5;align=left;verticalAlign=middle;spacingLeft=4;spacingRight=4;overflow=hidden;points=[[0,0.5],[1,0.5]];portConstraint=eastwest;rotatable=0;whiteSpace=wrap;html=1;fontColor=#333333;" parent="fd54uzVnLHC7MYWZy6Tg-93" vertex="1">
          <mxGeometry y="270" width="140" height="30" as="geometry" />
        </mxCell>
        <mxCell id="fd54uzVnLHC7MYWZy6Tg-103" value="emoji" style="swimlane;fontStyle=0;childLayout=stackLayout;horizontal=1;startSize=30;horizontalStack=0;resizeParent=1;resizeParentMax=0;resizeLast=0;collapsible=1;marginBottom=0;whiteSpace=wrap;html=1;fillColor=#dae8fc;strokeColor=#6c8ebf;" parent="1" vertex="1">
          <mxGeometry x="-1193.5" y="1701.5" width="140" height="338" as="geometry" />
        </mxCell>
        <mxCell id="fd54uzVnLHC7MYWZy6Tg-104" value="emoji_id (PK)" style="text;strokeColor=#666666;fillColor=#f5f5f5;align=left;verticalAlign=middle;spacingLeft=4;spacingRight=4;overflow=hidden;points=[[0,0.5],[1,0.5]];portConstraint=eastwest;rotatable=0;whiteSpace=wrap;html=1;fontColor=#333333;" parent="fd54uzVnLHC7MYWZy6Tg-103" vertex="1">
          <mxGeometry y="30" width="140" height="30" as="geometry" />
        </mxCell>
        <mxCell id="fd54uzVnLHC7MYWZy6Tg-105" value="emoji_name" style="text;strokeColor=#666666;fillColor=#f5f5f5;align=left;verticalAlign=middle;spacingLeft=4;spacingRight=4;overflow=hidden;points=[[0,0.5],[1,0.5]];portConstraint=eastwest;rotatable=0;whiteSpace=wrap;html=1;fontColor=#333333;" parent="fd54uzVnLHC7MYWZy6Tg-103" vertex="1">
          <mxGeometry y="60" width="140" height="30" as="geometry" />
        </mxCell>
        <mxCell id="fd54uzVnLHC7MYWZy6Tg-106" value="emoji" style="text;strokeColor=#666666;fillColor=#f5f5f5;align=left;verticalAlign=middle;spacingLeft=4;spacingRight=4;overflow=hidden;points=[[0,0.5],[1,0.5]];portConstraint=eastwest;rotatable=0;whiteSpace=wrap;html=1;fontColor=#333333;" parent="fd54uzVnLHC7MYWZy6Tg-103" vertex="1">
          <mxGeometry y="90" width="140" height="30" as="geometry" />
        </mxCell>
        <mxCell id="fd54uzVnLHC7MYWZy6Tg-113" value="status" style="text;strokeColor=#666666;fillColor=#f5f5f5;align=left;verticalAlign=middle;spacingLeft=4;spacingRight=4;overflow=hidden;points=[[0,0.5],[1,0.5]];portConstraint=eastwest;rotatable=0;whiteSpace=wrap;html=1;fontColor=#333333;" parent="fd54uzVnLHC7MYWZy6Tg-103" vertex="1">
          <mxGeometry y="120" width="140" height="34" as="geometry" />
        </mxCell>
        <mxCell id="fd54uzVnLHC7MYWZy6Tg-107" value="data_status" style="text;strokeColor=#666666;fillColor=#f5f5f5;align=left;verticalAlign=middle;spacingLeft=4;spacingRight=4;overflow=hidden;points=[[0,0.5],[1,0.5]];portConstraint=eastwest;rotatable=0;whiteSpace=wrap;html=1;fontColor=#333333;" parent="fd54uzVnLHC7MYWZy6Tg-103" vertex="1">
          <mxGeometry y="154" width="140" height="34" as="geometry" />
        </mxCell>
        <mxCell id="fd54uzVnLHC7MYWZy6Tg-108" value="ip:" style="text;strokeColor=#666666;fillColor=#f5f5f5;align=left;verticalAlign=middle;spacingLeft=4;spacingRight=4;overflow=hidden;points=[[0,0.5],[1,0.5]];portConstraint=eastwest;rotatable=0;whiteSpace=wrap;html=1;fontColor=#333333;" parent="fd54uzVnLHC7MYWZy6Tg-103" vertex="1">
          <mxGeometry y="188" width="140" height="30" as="geometry" />
        </mxCell>
        <mxCell id="fd54uzVnLHC7MYWZy6Tg-109" value="created_by" style="text;strokeColor=#666666;fillColor=#f5f5f5;align=left;verticalAlign=middle;spacingLeft=4;spacingRight=4;overflow=hidden;points=[[0,0.5],[1,0.5]];portConstraint=eastwest;rotatable=0;whiteSpace=wrap;html=1;fontColor=#333333;" parent="fd54uzVnLHC7MYWZy6Tg-103" vertex="1">
          <mxGeometry y="218" width="140" height="30" as="geometry" />
        </mxCell>
        <mxCell id="fd54uzVnLHC7MYWZy6Tg-110" value="created_at" style="text;strokeColor=#666666;fillColor=#f5f5f5;align=left;verticalAlign=middle;spacingLeft=4;spacingRight=4;overflow=hidden;points=[[0,0.5],[1,0.5]];portConstraint=eastwest;rotatable=0;whiteSpace=wrap;html=1;fontColor=#333333;" parent="fd54uzVnLHC7MYWZy6Tg-103" vertex="1">
          <mxGeometry y="248" width="140" height="30" as="geometry" />
        </mxCell>
        <mxCell id="fd54uzVnLHC7MYWZy6Tg-111" value="updated_by" style="text;strokeColor=#666666;fillColor=#f5f5f5;align=left;verticalAlign=middle;spacingLeft=4;spacingRight=4;overflow=hidden;points=[[0,0.5],[1,0.5]];portConstraint=eastwest;rotatable=0;whiteSpace=wrap;html=1;fontColor=#333333;" parent="fd54uzVnLHC7MYWZy6Tg-103" vertex="1">
          <mxGeometry y="278" width="140" height="30" as="geometry" />
        </mxCell>
        <mxCell id="fd54uzVnLHC7MYWZy6Tg-112" value="updated_at" style="text;strokeColor=#666666;fillColor=#f5f5f5;align=left;verticalAlign=middle;spacingLeft=4;spacingRight=4;overflow=hidden;points=[[0,0.5],[1,0.5]];portConstraint=eastwest;rotatable=0;whiteSpace=wrap;html=1;fontColor=#333333;" parent="fd54uzVnLHC7MYWZy6Tg-103" vertex="1">
          <mxGeometry y="308" width="140" height="30" as="geometry" />
        </mxCell>
        <mxCell id="fd54uzVnLHC7MYWZy6Tg-139" value="comments" style="swimlane;fontStyle=0;childLayout=stackLayout;horizontal=1;startSize=30;horizontalStack=0;resizeParent=1;resizeParentMax=0;resizeLast=0;collapsible=1;marginBottom=0;whiteSpace=wrap;html=1;fillColor=#dae8fc;strokeColor=#6c8ebf;" parent="1" vertex="1">
          <mxGeometry x="-1031.5" y="1699" width="140" height="428" as="geometry" />
        </mxCell>
        <mxCell id="fd54uzVnLHC7MYWZy6Tg-140" value="comment_id (PK)" style="text;strokeColor=#666666;fillColor=#f5f5f5;align=left;verticalAlign=middle;spacingLeft=4;spacingRight=4;overflow=hidden;points=[[0,0.5],[1,0.5]];portConstraint=eastwest;rotatable=0;whiteSpace=wrap;html=1;fontColor=#333333;" parent="fd54uzVnLHC7MYWZy6Tg-139" vertex="1">
          <mxGeometry y="30" width="140" height="30" as="geometry" />
        </mxCell>
        <mxCell id="fd54uzVnLHC7MYWZy6Tg-141" value="content_id" style="text;strokeColor=#666666;fillColor=#f5f5f5;align=left;verticalAlign=middle;spacingLeft=4;spacingRight=4;overflow=hidden;points=[[0,0.5],[1,0.5]];portConstraint=eastwest;rotatable=0;whiteSpace=wrap;html=1;fontColor=#333333;" parent="fd54uzVnLHC7MYWZy6Tg-139" vertex="1">
          <mxGeometry y="60" width="140" height="30" as="geometry" />
        </mxCell>
        <mxCell id="fd54uzVnLHC7MYWZy6Tg-142" value="comment_id" style="text;strokeColor=#666666;fillColor=#f5f5f5;align=left;verticalAlign=middle;spacingLeft=4;spacingRight=4;overflow=hidden;points=[[0,0.5],[1,0.5]];portConstraint=eastwest;rotatable=0;whiteSpace=wrap;html=1;fontColor=#333333;" parent="fd54uzVnLHC7MYWZy6Tg-139" vertex="1">
          <mxGeometry y="90" width="140" height="30" as="geometry" />
        </mxCell>
        <mxCell id="fd54uzVnLHC7MYWZy6Tg-143" value="comments" style="text;strokeColor=#666666;fillColor=#f5f5f5;align=left;verticalAlign=middle;spacingLeft=4;spacingRight=4;overflow=hidden;points=[[0,0.5],[1,0.5]];portConstraint=eastwest;rotatable=0;whiteSpace=wrap;html=1;fontColor=#333333;" parent="fd54uzVnLHC7MYWZy6Tg-139" vertex="1">
          <mxGeometry y="120" width="140" height="30" as="geometry" />
        </mxCell>
        <mxCell id="Q-SCWLnYImMcxiPHVHH7-2" value="media(blob)" style="text;strokeColor=#666666;fillColor=#f5f5f5;align=left;verticalAlign=middle;spacingLeft=4;spacingRight=4;overflow=hidden;points=[[0,0.5],[1,0.5]];portConstraint=eastwest;rotatable=0;whiteSpace=wrap;html=1;fontColor=#333333;" parent="fd54uzVnLHC7MYWZy6Tg-139" vertex="1">
          <mxGeometry y="150" width="140" height="30" as="geometry" />
        </mxCell>
        <mxCell id="fd54uzVnLHC7MYWZy6Tg-144" value="user_id" style="text;strokeColor=#666666;fillColor=#f5f5f5;align=left;verticalAlign=middle;spacingLeft=4;spacingRight=4;overflow=hidden;points=[[0,0.5],[1,0.5]];portConstraint=eastwest;rotatable=0;whiteSpace=wrap;html=1;fontColor=#333333;" parent="fd54uzVnLHC7MYWZy6Tg-139" vertex="1">
          <mxGeometry y="180" width="140" height="30" as="geometry" />
        </mxCell>
        <mxCell id="fd54uzVnLHC7MYWZy6Tg-145" value="status" style="text;strokeColor=#666666;fillColor=#f5f5f5;align=left;verticalAlign=middle;spacingLeft=4;spacingRight=4;overflow=hidden;points=[[0,0.5],[1,0.5]];portConstraint=eastwest;rotatable=0;whiteSpace=wrap;html=1;fontColor=#333333;" parent="fd54uzVnLHC7MYWZy6Tg-139" vertex="1">
          <mxGeometry y="210" width="140" height="34" as="geometry" />
        </mxCell>
        <mxCell id="fd54uzVnLHC7MYWZy6Tg-146" value="data_status" style="text;strokeColor=#666666;fillColor=#f5f5f5;align=left;verticalAlign=middle;spacingLeft=4;spacingRight=4;overflow=hidden;points=[[0,0.5],[1,0.5]];portConstraint=eastwest;rotatable=0;whiteSpace=wrap;html=1;fontColor=#333333;" parent="fd54uzVnLHC7MYWZy6Tg-139" vertex="1">
          <mxGeometry y="244" width="140" height="34" as="geometry" />
        </mxCell>
        <mxCell id="fd54uzVnLHC7MYWZy6Tg-147" value="ip:" style="text;strokeColor=#666666;fillColor=#f5f5f5;align=left;verticalAlign=middle;spacingLeft=4;spacingRight=4;overflow=hidden;points=[[0,0.5],[1,0.5]];portConstraint=eastwest;rotatable=0;whiteSpace=wrap;html=1;fontColor=#333333;" parent="fd54uzVnLHC7MYWZy6Tg-139" vertex="1">
          <mxGeometry y="278" width="140" height="30" as="geometry" />
        </mxCell>
        <mxCell id="fd54uzVnLHC7MYWZy6Tg-148" value="created_by" style="text;strokeColor=#666666;fillColor=#f5f5f5;align=left;verticalAlign=middle;spacingLeft=4;spacingRight=4;overflow=hidden;points=[[0,0.5],[1,0.5]];portConstraint=eastwest;rotatable=0;whiteSpace=wrap;html=1;fontColor=#333333;" parent="fd54uzVnLHC7MYWZy6Tg-139" vertex="1">
          <mxGeometry y="308" width="140" height="30" as="geometry" />
        </mxCell>
        <mxCell id="fd54uzVnLHC7MYWZy6Tg-149" value="created_at" style="text;strokeColor=#666666;fillColor=#f5f5f5;align=left;verticalAlign=middle;spacingLeft=4;spacingRight=4;overflow=hidden;points=[[0,0.5],[1,0.5]];portConstraint=eastwest;rotatable=0;whiteSpace=wrap;html=1;fontColor=#333333;" parent="fd54uzVnLHC7MYWZy6Tg-139" vertex="1">
          <mxGeometry y="338" width="140" height="30" as="geometry" />
        </mxCell>
        <mxCell id="fd54uzVnLHC7MYWZy6Tg-150" value="updated_by" style="text;strokeColor=#666666;fillColor=#f5f5f5;align=left;verticalAlign=middle;spacingLeft=4;spacingRight=4;overflow=hidden;points=[[0,0.5],[1,0.5]];portConstraint=eastwest;rotatable=0;whiteSpace=wrap;html=1;fontColor=#333333;" parent="fd54uzVnLHC7MYWZy6Tg-139" vertex="1">
          <mxGeometry y="368" width="140" height="30" as="geometry" />
        </mxCell>
        <mxCell id="fd54uzVnLHC7MYWZy6Tg-151" value="updated_at" style="text;strokeColor=#666666;fillColor=#f5f5f5;align=left;verticalAlign=middle;spacingLeft=4;spacingRight=4;overflow=hidden;points=[[0,0.5],[1,0.5]];portConstraint=eastwest;rotatable=0;whiteSpace=wrap;html=1;fontColor=#333333;" parent="fd54uzVnLHC7MYWZy6Tg-139" vertex="1">
          <mxGeometry y="398" width="140" height="30" as="geometry" />
        </mxCell>
        <mxCell id="Q-SCWLnYImMcxiPHVHH7-3" value="group_type" style="swimlane;fontStyle=0;childLayout=stackLayout;horizontal=1;startSize=30;horizontalStack=0;resizeParent=1;resizeParentMax=0;resizeLast=0;collapsible=1;marginBottom=0;whiteSpace=wrap;html=1;fillColor=#dae8fc;strokeColor=#6c8ebf;" parent="1" vertex="1">
          <mxGeometry x="-1667.5" y="2229" width="140" height="304" as="geometry" />
        </mxCell>
        <mxCell id="Q-SCWLnYImMcxiPHVHH7-4" value="group_type_id (PK)" style="text;strokeColor=#666666;fillColor=#f5f5f5;align=left;verticalAlign=middle;spacingLeft=4;spacingRight=4;overflow=hidden;points=[[0,0.5],[1,0.5]];portConstraint=eastwest;rotatable=0;whiteSpace=wrap;html=1;fontColor=#333333;" parent="Q-SCWLnYImMcxiPHVHH7-3" vertex="1">
          <mxGeometry y="30" width="140" height="30" as="geometry" />
        </mxCell>
        <mxCell id="Q-SCWLnYImMcxiPHVHH7-5" value="group_type" style="text;strokeColor=#666666;fillColor=#f5f5f5;align=left;verticalAlign=middle;spacingLeft=4;spacingRight=4;overflow=hidden;points=[[0,0.5],[1,0.5]];portConstraint=eastwest;rotatable=0;whiteSpace=wrap;html=1;fontColor=#333333;" parent="Q-SCWLnYImMcxiPHVHH7-3" vertex="1">
          <mxGeometry y="60" width="140" height="30" as="geometry" />
        </mxCell>
        <mxCell id="Q-SCWLnYImMcxiPHVHH7-6" value="privacy" style="text;strokeColor=#666666;fillColor=#f5f5f5;align=left;verticalAlign=middle;spacingLeft=4;spacingRight=4;overflow=hidden;points=[[0,0.5],[1,0.5]];portConstraint=eastwest;rotatable=0;whiteSpace=wrap;html=1;fontColor=#333333;" parent="Q-SCWLnYImMcxiPHVHH7-3" vertex="1">
          <mxGeometry y="90" width="140" height="30" as="geometry" />
        </mxCell>
        <mxCell id="Q-SCWLnYImMcxiPHVHH7-11" value="data_status" style="text;strokeColor=#666666;fillColor=#f5f5f5;align=left;verticalAlign=middle;spacingLeft=4;spacingRight=4;overflow=hidden;points=[[0,0.5],[1,0.5]];portConstraint=eastwest;rotatable=0;whiteSpace=wrap;html=1;fontColor=#333333;" parent="Q-SCWLnYImMcxiPHVHH7-3" vertex="1">
          <mxGeometry y="120" width="140" height="34" as="geometry" />
        </mxCell>
        <mxCell id="Q-SCWLnYImMcxiPHVHH7-12" value="ip:" style="text;strokeColor=#666666;fillColor=#f5f5f5;align=left;verticalAlign=middle;spacingLeft=4;spacingRight=4;overflow=hidden;points=[[0,0.5],[1,0.5]];portConstraint=eastwest;rotatable=0;whiteSpace=wrap;html=1;fontColor=#333333;" parent="Q-SCWLnYImMcxiPHVHH7-3" vertex="1">
          <mxGeometry y="154" width="140" height="30" as="geometry" />
        </mxCell>
        <mxCell id="Q-SCWLnYImMcxiPHVHH7-13" value="created_by" style="text;strokeColor=#666666;fillColor=#f5f5f5;align=left;verticalAlign=middle;spacingLeft=4;spacingRight=4;overflow=hidden;points=[[0,0.5],[1,0.5]];portConstraint=eastwest;rotatable=0;whiteSpace=wrap;html=1;fontColor=#333333;" parent="Q-SCWLnYImMcxiPHVHH7-3" vertex="1">
          <mxGeometry y="184" width="140" height="30" as="geometry" />
        </mxCell>
        <mxCell id="Q-SCWLnYImMcxiPHVHH7-14" value="created_at" style="text;strokeColor=#666666;fillColor=#f5f5f5;align=left;verticalAlign=middle;spacingLeft=4;spacingRight=4;overflow=hidden;points=[[0,0.5],[1,0.5]];portConstraint=eastwest;rotatable=0;whiteSpace=wrap;html=1;fontColor=#333333;" parent="Q-SCWLnYImMcxiPHVHH7-3" vertex="1">
          <mxGeometry y="214" width="140" height="30" as="geometry" />
        </mxCell>
        <mxCell id="Q-SCWLnYImMcxiPHVHH7-15" value="updated_by" style="text;strokeColor=#666666;fillColor=#f5f5f5;align=left;verticalAlign=middle;spacingLeft=4;spacingRight=4;overflow=hidden;points=[[0,0.5],[1,0.5]];portConstraint=eastwest;rotatable=0;whiteSpace=wrap;html=1;fontColor=#333333;" parent="Q-SCWLnYImMcxiPHVHH7-3" vertex="1">
          <mxGeometry y="244" width="140" height="30" as="geometry" />
        </mxCell>
        <mxCell id="Q-SCWLnYImMcxiPHVHH7-16" value="updated_at" style="text;strokeColor=#666666;fillColor=#f5f5f5;align=left;verticalAlign=middle;spacingLeft=4;spacingRight=4;overflow=hidden;points=[[0,0.5],[1,0.5]];portConstraint=eastwest;rotatable=0;whiteSpace=wrap;html=1;fontColor=#333333;" parent="Q-SCWLnYImMcxiPHVHH7-3" vertex="1">
          <mxGeometry y="274" width="140" height="30" as="geometry" />
        </mxCell>
        <mxCell id="Q-SCWLnYImMcxiPHVHH7-17" value="group" style="swimlane;fontStyle=0;childLayout=stackLayout;horizontal=1;startSize=30;horizontalStack=0;resizeParent=1;resizeParentMax=0;resizeLast=0;collapsible=1;marginBottom=0;whiteSpace=wrap;html=1;fillColor=#dae8fc;strokeColor=#6c8ebf;" parent="1" vertex="1">
          <mxGeometry x="-1499" y="2229" width="140" height="458" as="geometry" />
        </mxCell>
        <mxCell id="Q-SCWLnYImMcxiPHVHH7-18" value="group_id (PK)" style="text;strokeColor=#666666;fillColor=#f5f5f5;align=left;verticalAlign=middle;spacingLeft=4;spacingRight=4;overflow=hidden;points=[[0,0.5],[1,0.5]];portConstraint=eastwest;rotatable=0;whiteSpace=wrap;html=1;fontColor=#333333;" parent="Q-SCWLnYImMcxiPHVHH7-17" vertex="1">
          <mxGeometry y="30" width="140" height="30" as="geometry" />
        </mxCell>
        <mxCell id="Q-SCWLnYImMcxiPHVHH7-19" value="group_type_id (fk)" style="text;strokeColor=#666666;fillColor=#f5f5f5;align=left;verticalAlign=middle;spacingLeft=4;spacingRight=4;overflow=hidden;points=[[0,0.5],[1,0.5]];portConstraint=eastwest;rotatable=0;whiteSpace=wrap;html=1;fontColor=#333333;" parent="Q-SCWLnYImMcxiPHVHH7-17" vertex="1">
          <mxGeometry y="60" width="140" height="30" as="geometry" />
        </mxCell>
        <mxCell id="Q-SCWLnYImMcxiPHVHH7-20" value="group_name" style="text;strokeColor=#666666;fillColor=#f5f5f5;align=left;verticalAlign=middle;spacingLeft=4;spacingRight=4;overflow=hidden;points=[[0,0.5],[1,0.5]];portConstraint=eastwest;rotatable=0;whiteSpace=wrap;html=1;fontColor=#333333;" parent="Q-SCWLnYImMcxiPHVHH7-17" vertex="1">
          <mxGeometry y="90" width="140" height="30" as="geometry" />
        </mxCell>
        <mxCell id="Q-SCWLnYImMcxiPHVHH7-28" value="group_description" style="text;strokeColor=#666666;fillColor=#f5f5f5;align=left;verticalAlign=middle;spacingLeft=4;spacingRight=4;overflow=hidden;points=[[0,0.5],[1,0.5]];portConstraint=eastwest;rotatable=0;whiteSpace=wrap;html=1;fontColor=#333333;" parent="Q-SCWLnYImMcxiPHVHH7-17" vertex="1">
          <mxGeometry y="120" width="140" height="30" as="geometry" />
        </mxCell>
        <mxCell id="spoWnkToUM-lE0BY_IcL-2" value="group_image" style="text;strokeColor=#666666;fillColor=#f5f5f5;align=left;verticalAlign=middle;spacingLeft=4;spacingRight=4;overflow=hidden;points=[[0,0.5],[1,0.5]];portConstraint=eastwest;rotatable=0;whiteSpace=wrap;html=1;fontColor=#333333;" vertex="1" parent="Q-SCWLnYImMcxiPHVHH7-17">
          <mxGeometry y="150" width="140" height="30" as="geometry" />
        </mxCell>
        <mxCell id="Q-SCWLnYImMcxiPHVHH7-30" value="joining_policy" style="text;strokeColor=#666666;fillColor=#f5f5f5;align=left;verticalAlign=middle;spacingLeft=4;spacingRight=4;overflow=hidden;points=[[0,0.5],[1,0.5]];portConstraint=eastwest;rotatable=0;whiteSpace=wrap;html=1;fontColor=#333333;" parent="Q-SCWLnYImMcxiPHVHH7-17" vertex="1">
          <mxGeometry y="180" width="140" height="30" as="geometry" />
        </mxCell>
        <mxCell id="Q-SCWLnYImMcxiPHVHH7-29" value="location" style="text;strokeColor=#666666;fillColor=#f5f5f5;align=left;verticalAlign=middle;spacingLeft=4;spacingRight=4;overflow=hidden;points=[[0,0.5],[1,0.5]];portConstraint=eastwest;rotatable=0;whiteSpace=wrap;html=1;fontColor=#333333;" parent="Q-SCWLnYImMcxiPHVHH7-17" vertex="1">
          <mxGeometry y="210" width="140" height="30" as="geometry" />
        </mxCell>
        <mxCell id="Q-SCWLnYImMcxiPHVHH7-21" value="status" style="text;strokeColor=#666666;fillColor=#f5f5f5;align=left;verticalAlign=middle;spacingLeft=4;spacingRight=4;overflow=hidden;points=[[0,0.5],[1,0.5]];portConstraint=eastwest;rotatable=0;whiteSpace=wrap;html=1;fontColor=#333333;" parent="Q-SCWLnYImMcxiPHVHH7-17" vertex="1">
          <mxGeometry y="240" width="140" height="34" as="geometry" />
        </mxCell>
        <mxCell id="Q-SCWLnYImMcxiPHVHH7-22" value="data_status" style="text;strokeColor=#666666;fillColor=#f5f5f5;align=left;verticalAlign=middle;spacingLeft=4;spacingRight=4;overflow=hidden;points=[[0,0.5],[1,0.5]];portConstraint=eastwest;rotatable=0;whiteSpace=wrap;html=1;fontColor=#333333;" parent="Q-SCWLnYImMcxiPHVHH7-17" vertex="1">
          <mxGeometry y="274" width="140" height="34" as="geometry" />
        </mxCell>
        <mxCell id="Q-SCWLnYImMcxiPHVHH7-23" value="ip:" style="text;strokeColor=#666666;fillColor=#f5f5f5;align=left;verticalAlign=middle;spacingLeft=4;spacingRight=4;overflow=hidden;points=[[0,0.5],[1,0.5]];portConstraint=eastwest;rotatable=0;whiteSpace=wrap;html=1;fontColor=#333333;" parent="Q-SCWLnYImMcxiPHVHH7-17" vertex="1">
          <mxGeometry y="308" width="140" height="30" as="geometry" />
        </mxCell>
        <mxCell id="Q-SCWLnYImMcxiPHVHH7-24" value="created_by" style="text;strokeColor=#666666;fillColor=#f5f5f5;align=left;verticalAlign=middle;spacingLeft=4;spacingRight=4;overflow=hidden;points=[[0,0.5],[1,0.5]];portConstraint=eastwest;rotatable=0;whiteSpace=wrap;html=1;fontColor=#333333;" parent="Q-SCWLnYImMcxiPHVHH7-17" vertex="1">
          <mxGeometry y="338" width="140" height="30" as="geometry" />
        </mxCell>
        <mxCell id="Q-SCWLnYImMcxiPHVHH7-25" value="created_at" style="text;strokeColor=#666666;fillColor=#f5f5f5;align=left;verticalAlign=middle;spacingLeft=4;spacingRight=4;overflow=hidden;points=[[0,0.5],[1,0.5]];portConstraint=eastwest;rotatable=0;whiteSpace=wrap;html=1;fontColor=#333333;" parent="Q-SCWLnYImMcxiPHVHH7-17" vertex="1">
          <mxGeometry y="368" width="140" height="30" as="geometry" />
        </mxCell>
        <mxCell id="Q-SCWLnYImMcxiPHVHH7-26" value="updated_by" style="text;strokeColor=#666666;fillColor=#f5f5f5;align=left;verticalAlign=middle;spacingLeft=4;spacingRight=4;overflow=hidden;points=[[0,0.5],[1,0.5]];portConstraint=eastwest;rotatable=0;whiteSpace=wrap;html=1;fontColor=#333333;" parent="Q-SCWLnYImMcxiPHVHH7-17" vertex="1">
          <mxGeometry y="398" width="140" height="30" as="geometry" />
        </mxCell>
        <mxCell id="Q-SCWLnYImMcxiPHVHH7-27" value="updated_at" style="text;strokeColor=#666666;fillColor=#f5f5f5;align=left;verticalAlign=middle;spacingLeft=4;spacingRight=4;overflow=hidden;points=[[0,0.5],[1,0.5]];portConstraint=eastwest;rotatable=0;whiteSpace=wrap;html=1;fontColor=#333333;" parent="Q-SCWLnYImMcxiPHVHH7-17" vertex="1">
          <mxGeometry y="428" width="140" height="30" as="geometry" />
        </mxCell>
        <mxCell id="Q-SCWLnYImMcxiPHVHH7-32" value="group_joining_ques" style="swimlane;fontStyle=0;childLayout=stackLayout;horizontal=1;startSize=30;horizontalStack=0;resizeParent=1;resizeParentMax=0;resizeLast=0;collapsible=1;marginBottom=0;whiteSpace=wrap;html=1;fillColor=#dae8fc;strokeColor=#6c8ebf;" parent="1" vertex="1">
          <mxGeometry x="-1332" y="2229" width="140" height="338" as="geometry" />
        </mxCell>
        <mxCell id="Q-SCWLnYImMcxiPHVHH7-33" value="question-id (PK)" style="text;strokeColor=#666666;fillColor=#f5f5f5;align=left;verticalAlign=middle;spacingLeft=4;spacingRight=4;overflow=hidden;points=[[0,0.5],[1,0.5]];portConstraint=eastwest;rotatable=0;whiteSpace=wrap;html=1;fontColor=#333333;" parent="Q-SCWLnYImMcxiPHVHH7-32" vertex="1">
          <mxGeometry y="30" width="140" height="30" as="geometry" />
        </mxCell>
        <mxCell id="Q-SCWLnYImMcxiPHVHH7-34" value="group_id&amp;nbsp;(fk)" style="text;strokeColor=#666666;fillColor=#f5f5f5;align=left;verticalAlign=middle;spacingLeft=4;spacingRight=4;overflow=hidden;points=[[0,0.5],[1,0.5]];portConstraint=eastwest;rotatable=0;whiteSpace=wrap;html=1;fontColor=#333333;" parent="Q-SCWLnYImMcxiPHVHH7-32" vertex="1">
          <mxGeometry y="60" width="140" height="30" as="geometry" />
        </mxCell>
        <mxCell id="Q-SCWLnYImMcxiPHVHH7-46" value="joining_questions" style="text;strokeColor=#666666;fillColor=#f5f5f5;align=left;verticalAlign=middle;spacingLeft=4;spacingRight=4;overflow=hidden;points=[[0,0.5],[1,0.5]];portConstraint=eastwest;rotatable=0;whiteSpace=wrap;html=1;fontColor=#333333;" parent="Q-SCWLnYImMcxiPHVHH7-32" vertex="1">
          <mxGeometry y="90" width="140" height="30" as="geometry" />
        </mxCell>
        <mxCell id="Q-SCWLnYImMcxiPHVHH7-39" value="status" style="text;strokeColor=#666666;fillColor=#f5f5f5;align=left;verticalAlign=middle;spacingLeft=4;spacingRight=4;overflow=hidden;points=[[0,0.5],[1,0.5]];portConstraint=eastwest;rotatable=0;whiteSpace=wrap;html=1;fontColor=#333333;" parent="Q-SCWLnYImMcxiPHVHH7-32" vertex="1">
          <mxGeometry y="120" width="140" height="34" as="geometry" />
        </mxCell>
        <mxCell id="Q-SCWLnYImMcxiPHVHH7-40" value="data_status" style="text;strokeColor=#666666;fillColor=#f5f5f5;align=left;verticalAlign=middle;spacingLeft=4;spacingRight=4;overflow=hidden;points=[[0,0.5],[1,0.5]];portConstraint=eastwest;rotatable=0;whiteSpace=wrap;html=1;fontColor=#333333;" parent="Q-SCWLnYImMcxiPHVHH7-32" vertex="1">
          <mxGeometry y="154" width="140" height="34" as="geometry" />
        </mxCell>
        <mxCell id="Q-SCWLnYImMcxiPHVHH7-41" value="ip:" style="text;strokeColor=#666666;fillColor=#f5f5f5;align=left;verticalAlign=middle;spacingLeft=4;spacingRight=4;overflow=hidden;points=[[0,0.5],[1,0.5]];portConstraint=eastwest;rotatable=0;whiteSpace=wrap;html=1;fontColor=#333333;" parent="Q-SCWLnYImMcxiPHVHH7-32" vertex="1">
          <mxGeometry y="188" width="140" height="30" as="geometry" />
        </mxCell>
        <mxCell id="Q-SCWLnYImMcxiPHVHH7-42" value="created_by" style="text;strokeColor=#666666;fillColor=#f5f5f5;align=left;verticalAlign=middle;spacingLeft=4;spacingRight=4;overflow=hidden;points=[[0,0.5],[1,0.5]];portConstraint=eastwest;rotatable=0;whiteSpace=wrap;html=1;fontColor=#333333;" parent="Q-SCWLnYImMcxiPHVHH7-32" vertex="1">
          <mxGeometry y="218" width="140" height="30" as="geometry" />
        </mxCell>
        <mxCell id="Q-SCWLnYImMcxiPHVHH7-43" value="created_at" style="text;strokeColor=#666666;fillColor=#f5f5f5;align=left;verticalAlign=middle;spacingLeft=4;spacingRight=4;overflow=hidden;points=[[0,0.5],[1,0.5]];portConstraint=eastwest;rotatable=0;whiteSpace=wrap;html=1;fontColor=#333333;" parent="Q-SCWLnYImMcxiPHVHH7-32" vertex="1">
          <mxGeometry y="248" width="140" height="30" as="geometry" />
        </mxCell>
        <mxCell id="Q-SCWLnYImMcxiPHVHH7-44" value="updated_by" style="text;strokeColor=#666666;fillColor=#f5f5f5;align=left;verticalAlign=middle;spacingLeft=4;spacingRight=4;overflow=hidden;points=[[0,0.5],[1,0.5]];portConstraint=eastwest;rotatable=0;whiteSpace=wrap;html=1;fontColor=#333333;" parent="Q-SCWLnYImMcxiPHVHH7-32" vertex="1">
          <mxGeometry y="278" width="140" height="30" as="geometry" />
        </mxCell>
        <mxCell id="Q-SCWLnYImMcxiPHVHH7-45" value="updated_at" style="text;strokeColor=#666666;fillColor=#f5f5f5;align=left;verticalAlign=middle;spacingLeft=4;spacingRight=4;overflow=hidden;points=[[0,0.5],[1,0.5]];portConstraint=eastwest;rotatable=0;whiteSpace=wrap;html=1;fontColor=#333333;" parent="Q-SCWLnYImMcxiPHVHH7-32" vertex="1">
          <mxGeometry y="308" width="140" height="30" as="geometry" />
        </mxCell>
        <mxCell id="Q-SCWLnYImMcxiPHVHH7-47" value="group_joining_ans" style="swimlane;fontStyle=0;childLayout=stackLayout;horizontal=1;startSize=30;horizontalStack=0;resizeParent=1;resizeParentMax=0;resizeLast=0;collapsible=1;marginBottom=0;whiteSpace=wrap;html=1;fillColor=#dae8fc;strokeColor=#6c8ebf;" parent="1" vertex="1">
          <mxGeometry x="-1171" y="2229" width="140" height="376" as="geometry" />
        </mxCell>
        <mxCell id="Q-SCWLnYImMcxiPHVHH7-48" value="group_joining_d (PK)" style="text;strokeColor=#666666;fillColor=#f5f5f5;align=left;verticalAlign=middle;spacingLeft=4;spacingRight=4;overflow=hidden;points=[[0,0.5],[1,0.5]];portConstraint=eastwest;rotatable=0;whiteSpace=wrap;html=1;fontColor=#333333;" parent="Q-SCWLnYImMcxiPHVHH7-47" vertex="1">
          <mxGeometry y="30" width="140" height="30" as="geometry" />
        </mxCell>
        <mxCell id="Q-SCWLnYImMcxiPHVHH7-49" value="group_joining_ques_id (fk)" style="text;strokeColor=#666666;fillColor=#f5f5f5;align=left;verticalAlign=middle;spacingLeft=4;spacingRight=4;overflow=hidden;points=[[0,0.5],[1,0.5]];portConstraint=eastwest;rotatable=0;whiteSpace=wrap;html=1;fontColor=#333333;" parent="Q-SCWLnYImMcxiPHVHH7-47" vertex="1">
          <mxGeometry y="60" width="140" height="38" as="geometry" />
        </mxCell>
        <mxCell id="jYQdoo0Zff-4ryKH4e4E-21" value="group_id" style="text;strokeColor=#666666;fillColor=#f5f5f5;align=left;verticalAlign=middle;spacingLeft=4;spacingRight=4;overflow=hidden;points=[[0,0.5],[1,0.5]];portConstraint=eastwest;rotatable=0;whiteSpace=wrap;html=1;fontColor=#333333;" parent="Q-SCWLnYImMcxiPHVHH7-47" vertex="1">
          <mxGeometry y="98" width="140" height="30" as="geometry" />
        </mxCell>
        <mxCell id="Q-SCWLnYImMcxiPHVHH7-50" value="answers&amp;nbsp;" style="text;strokeColor=#666666;fillColor=#f5f5f5;align=left;verticalAlign=middle;spacingLeft=4;spacingRight=4;overflow=hidden;points=[[0,0.5],[1,0.5]];portConstraint=eastwest;rotatable=0;whiteSpace=wrap;html=1;fontColor=#333333;" parent="Q-SCWLnYImMcxiPHVHH7-47" vertex="1">
          <mxGeometry y="128" width="140" height="30" as="geometry" />
        </mxCell>
        <mxCell id="Q-SCWLnYImMcxiPHVHH7-51" value="status" style="text;strokeColor=#666666;fillColor=#f5f5f5;align=left;verticalAlign=middle;spacingLeft=4;spacingRight=4;overflow=hidden;points=[[0,0.5],[1,0.5]];portConstraint=eastwest;rotatable=0;whiteSpace=wrap;html=1;fontColor=#333333;" parent="Q-SCWLnYImMcxiPHVHH7-47" vertex="1">
          <mxGeometry y="158" width="140" height="34" as="geometry" />
        </mxCell>
        <mxCell id="Q-SCWLnYImMcxiPHVHH7-52" value="data_status" style="text;strokeColor=#666666;fillColor=#f5f5f5;align=left;verticalAlign=middle;spacingLeft=4;spacingRight=4;overflow=hidden;points=[[0,0.5],[1,0.5]];portConstraint=eastwest;rotatable=0;whiteSpace=wrap;html=1;fontColor=#333333;" parent="Q-SCWLnYImMcxiPHVHH7-47" vertex="1">
          <mxGeometry y="192" width="140" height="34" as="geometry" />
        </mxCell>
        <mxCell id="Q-SCWLnYImMcxiPHVHH7-53" value="ip:" style="text;strokeColor=#666666;fillColor=#f5f5f5;align=left;verticalAlign=middle;spacingLeft=4;spacingRight=4;overflow=hidden;points=[[0,0.5],[1,0.5]];portConstraint=eastwest;rotatable=0;whiteSpace=wrap;html=1;fontColor=#333333;" parent="Q-SCWLnYImMcxiPHVHH7-47" vertex="1">
          <mxGeometry y="226" width="140" height="30" as="geometry" />
        </mxCell>
        <mxCell id="Q-SCWLnYImMcxiPHVHH7-54" value="created_by" style="text;strokeColor=#666666;fillColor=#f5f5f5;align=left;verticalAlign=middle;spacingLeft=4;spacingRight=4;overflow=hidden;points=[[0,0.5],[1,0.5]];portConstraint=eastwest;rotatable=0;whiteSpace=wrap;html=1;fontColor=#333333;" parent="Q-SCWLnYImMcxiPHVHH7-47" vertex="1">
          <mxGeometry y="256" width="140" height="30" as="geometry" />
        </mxCell>
        <mxCell id="Q-SCWLnYImMcxiPHVHH7-55" value="created_at" style="text;strokeColor=#666666;fillColor=#f5f5f5;align=left;verticalAlign=middle;spacingLeft=4;spacingRight=4;overflow=hidden;points=[[0,0.5],[1,0.5]];portConstraint=eastwest;rotatable=0;whiteSpace=wrap;html=1;fontColor=#333333;" parent="Q-SCWLnYImMcxiPHVHH7-47" vertex="1">
          <mxGeometry y="286" width="140" height="30" as="geometry" />
        </mxCell>
        <mxCell id="Q-SCWLnYImMcxiPHVHH7-56" value="updated_by" style="text;strokeColor=#666666;fillColor=#f5f5f5;align=left;verticalAlign=middle;spacingLeft=4;spacingRight=4;overflow=hidden;points=[[0,0.5],[1,0.5]];portConstraint=eastwest;rotatable=0;whiteSpace=wrap;html=1;fontColor=#333333;" parent="Q-SCWLnYImMcxiPHVHH7-47" vertex="1">
          <mxGeometry y="316" width="140" height="30" as="geometry" />
        </mxCell>
        <mxCell id="Q-SCWLnYImMcxiPHVHH7-57" value="updated_at" style="text;strokeColor=#666666;fillColor=#f5f5f5;align=left;verticalAlign=middle;spacingLeft=4;spacingRight=4;overflow=hidden;points=[[0,0.5],[1,0.5]];portConstraint=eastwest;rotatable=0;whiteSpace=wrap;html=1;fontColor=#333333;" parent="Q-SCWLnYImMcxiPHVHH7-47" vertex="1">
          <mxGeometry y="346" width="140" height="30" as="geometry" />
        </mxCell>
        <mxCell id="Q-SCWLnYImMcxiPHVHH7-61" value="group_member" style="swimlane;fontStyle=0;childLayout=stackLayout;horizontal=1;startSize=30;horizontalStack=0;resizeParent=1;resizeParentMax=0;resizeLast=0;collapsible=1;marginBottom=0;whiteSpace=wrap;html=1;fillColor=#dae8fc;strokeColor=#6c8ebf;" parent="1" vertex="1">
          <mxGeometry x="-1016" y="2229" width="140" height="424" as="geometry" />
        </mxCell>
        <mxCell id="Q-SCWLnYImMcxiPHVHH7-62" value="group_member_id (PK)" style="text;strokeColor=#666666;fillColor=#f5f5f5;align=left;verticalAlign=middle;spacingLeft=4;spacingRight=4;overflow=hidden;points=[[0,0.5],[1,0.5]];portConstraint=eastwest;rotatable=0;whiteSpace=wrap;html=1;fontColor=#333333;" parent="Q-SCWLnYImMcxiPHVHH7-61" vertex="1">
          <mxGeometry y="30" width="140" height="30" as="geometry" />
        </mxCell>
        <mxCell id="Q-SCWLnYImMcxiPHVHH7-63" value="member_user_id (fk)" style="text;strokeColor=#666666;fillColor=#f5f5f5;align=left;verticalAlign=middle;spacingLeft=4;spacingRight=4;overflow=hidden;points=[[0,0.5],[1,0.5]];portConstraint=eastwest;rotatable=0;whiteSpace=wrap;html=1;fontColor=#333333;" parent="Q-SCWLnYImMcxiPHVHH7-61" vertex="1">
          <mxGeometry y="60" width="140" height="30" as="geometry" />
        </mxCell>
        <mxCell id="jYQdoo0Zff-4ryKH4e4E-6" value="group_id" style="text;strokeColor=#666666;fillColor=#f5f5f5;align=left;verticalAlign=middle;spacingLeft=4;spacingRight=4;overflow=hidden;points=[[0,0.5],[1,0.5]];portConstraint=eastwest;rotatable=0;whiteSpace=wrap;html=1;fontColor=#333333;" parent="Q-SCWLnYImMcxiPHVHH7-61" vertex="1">
          <mxGeometry y="90" width="140" height="30" as="geometry" />
        </mxCell>
        <mxCell id="Q-SCWLnYImMcxiPHVHH7-64" value="joiining_date" style="text;strokeColor=#666666;fillColor=#f5f5f5;align=left;verticalAlign=middle;spacingLeft=4;spacingRight=4;overflow=hidden;points=[[0,0.5],[1,0.5]];portConstraint=eastwest;rotatable=0;whiteSpace=wrap;html=1;fontColor=#333333;" parent="Q-SCWLnYImMcxiPHVHH7-61" vertex="1">
          <mxGeometry y="120" width="140" height="30" as="geometry" />
        </mxCell>
        <mxCell id="Q-SCWLnYImMcxiPHVHH7-65" value="role_in_group" style="text;strokeColor=#666666;fillColor=#f5f5f5;align=left;verticalAlign=middle;spacingLeft=4;spacingRight=4;overflow=hidden;points=[[0,0.5],[1,0.5]];portConstraint=eastwest;rotatable=0;whiteSpace=wrap;html=1;fontColor=#333333;" parent="Q-SCWLnYImMcxiPHVHH7-61" vertex="1">
          <mxGeometry y="150" width="140" height="30" as="geometry" />
        </mxCell>
        <mxCell id="Q-SCWLnYImMcxiPHVHH7-66" value="is_banned" style="text;strokeColor=#666666;fillColor=#f5f5f5;align=left;verticalAlign=middle;spacingLeft=4;spacingRight=4;overflow=hidden;points=[[0,0.5],[1,0.5]];portConstraint=eastwest;rotatable=0;whiteSpace=wrap;html=1;fontColor=#333333;" parent="Q-SCWLnYImMcxiPHVHH7-61" vertex="1">
          <mxGeometry y="180" width="140" height="30" as="geometry" />
        </mxCell>
        <mxCell id="Q-SCWLnYImMcxiPHVHH7-67" value="is_restricted" style="text;strokeColor=#666666;fillColor=#f5f5f5;align=left;verticalAlign=middle;spacingLeft=4;spacingRight=4;overflow=hidden;points=[[0,0.5],[1,0.5]];portConstraint=eastwest;rotatable=0;whiteSpace=wrap;html=1;fontColor=#333333;" parent="Q-SCWLnYImMcxiPHVHH7-61" vertex="1">
          <mxGeometry y="210" width="140" height="30" as="geometry" />
        </mxCell>
        <mxCell id="Q-SCWLnYImMcxiPHVHH7-69" value="data_status" style="text;strokeColor=#666666;fillColor=#f5f5f5;align=left;verticalAlign=middle;spacingLeft=4;spacingRight=4;overflow=hidden;points=[[0,0.5],[1,0.5]];portConstraint=eastwest;rotatable=0;whiteSpace=wrap;html=1;fontColor=#333333;" parent="Q-SCWLnYImMcxiPHVHH7-61" vertex="1">
          <mxGeometry y="240" width="140" height="34" as="geometry" />
        </mxCell>
        <mxCell id="Q-SCWLnYImMcxiPHVHH7-70" value="ip:" style="text;strokeColor=#666666;fillColor=#f5f5f5;align=left;verticalAlign=middle;spacingLeft=4;spacingRight=4;overflow=hidden;points=[[0,0.5],[1,0.5]];portConstraint=eastwest;rotatable=0;whiteSpace=wrap;html=1;fontColor=#333333;" parent="Q-SCWLnYImMcxiPHVHH7-61" vertex="1">
          <mxGeometry y="274" width="140" height="30" as="geometry" />
        </mxCell>
        <mxCell id="Q-SCWLnYImMcxiPHVHH7-71" value="created_by" style="text;strokeColor=#666666;fillColor=#f5f5f5;align=left;verticalAlign=middle;spacingLeft=4;spacingRight=4;overflow=hidden;points=[[0,0.5],[1,0.5]];portConstraint=eastwest;rotatable=0;whiteSpace=wrap;html=1;fontColor=#333333;" parent="Q-SCWLnYImMcxiPHVHH7-61" vertex="1">
          <mxGeometry y="304" width="140" height="30" as="geometry" />
        </mxCell>
        <mxCell id="Q-SCWLnYImMcxiPHVHH7-72" value="created_at" style="text;strokeColor=#666666;fillColor=#f5f5f5;align=left;verticalAlign=middle;spacingLeft=4;spacingRight=4;overflow=hidden;points=[[0,0.5],[1,0.5]];portConstraint=eastwest;rotatable=0;whiteSpace=wrap;html=1;fontColor=#333333;" parent="Q-SCWLnYImMcxiPHVHH7-61" vertex="1">
          <mxGeometry y="334" width="140" height="30" as="geometry" />
        </mxCell>
        <mxCell id="Q-SCWLnYImMcxiPHVHH7-73" value="updated_by" style="text;strokeColor=#666666;fillColor=#f5f5f5;align=left;verticalAlign=middle;spacingLeft=4;spacingRight=4;overflow=hidden;points=[[0,0.5],[1,0.5]];portConstraint=eastwest;rotatable=0;whiteSpace=wrap;html=1;fontColor=#333333;" parent="Q-SCWLnYImMcxiPHVHH7-61" vertex="1">
          <mxGeometry y="364" width="140" height="30" as="geometry" />
        </mxCell>
        <mxCell id="Q-SCWLnYImMcxiPHVHH7-74" value="updated_at" style="text;strokeColor=#666666;fillColor=#f5f5f5;align=left;verticalAlign=middle;spacingLeft=4;spacingRight=4;overflow=hidden;points=[[0,0.5],[1,0.5]];portConstraint=eastwest;rotatable=0;whiteSpace=wrap;html=1;fontColor=#333333;" parent="Q-SCWLnYImMcxiPHVHH7-61" vertex="1">
          <mxGeometry y="394" width="140" height="30" as="geometry" />
        </mxCell>
        <mxCell id="Q-SCWLnYImMcxiPHVHH7-75" value="roles_in_page_group" style="swimlane;fontStyle=0;childLayout=stackLayout;horizontal=1;startSize=30;horizontalStack=0;resizeParent=1;resizeParentMax=0;resizeLast=0;collapsible=1;marginBottom=0;whiteSpace=wrap;html=1;fillColor=#dae8fc;strokeColor=#6c8ebf;" parent="1" vertex="1">
          <mxGeometry x="-1613" y="2714" width="140" height="304" as="geometry" />
        </mxCell>
        <mxCell id="Q-SCWLnYImMcxiPHVHH7-76" value="role_id (PK)" style="text;strokeColor=#666666;fillColor=#f5f5f5;align=left;verticalAlign=middle;spacingLeft=4;spacingRight=4;overflow=hidden;points=[[0,0.5],[1,0.5]];portConstraint=eastwest;rotatable=0;whiteSpace=wrap;html=1;fontColor=#333333;" parent="Q-SCWLnYImMcxiPHVHH7-75" vertex="1">
          <mxGeometry y="30" width="140" height="30" as="geometry" />
        </mxCell>
        <mxCell id="Q-SCWLnYImMcxiPHVHH7-77" value="role_name" style="text;strokeColor=#666666;fillColor=#f5f5f5;align=left;verticalAlign=middle;spacingLeft=4;spacingRight=4;overflow=hidden;points=[[0,0.5],[1,0.5]];portConstraint=eastwest;rotatable=0;whiteSpace=wrap;html=1;fontColor=#333333;" parent="Q-SCWLnYImMcxiPHVHH7-75" vertex="1">
          <mxGeometry y="60" width="140" height="30" as="geometry" />
        </mxCell>
        <mxCell id="Q-SCWLnYImMcxiPHVHH7-84" value="updated_at" style="text;strokeColor=#666666;fillColor=#f5f5f5;align=left;verticalAlign=middle;spacingLeft=4;spacingRight=4;overflow=hidden;points=[[0,0.5],[1,0.5]];portConstraint=eastwest;rotatable=0;whiteSpace=wrap;html=1;fontColor=#333333;" parent="Q-SCWLnYImMcxiPHVHH7-75" vertex="1">
          <mxGeometry y="90" width="140" height="30" as="geometry" />
        </mxCell>
        <mxCell id="Q-SCWLnYImMcxiPHVHH7-83" value="updated_by" style="text;strokeColor=#666666;fillColor=#f5f5f5;align=left;verticalAlign=middle;spacingLeft=4;spacingRight=4;overflow=hidden;points=[[0,0.5],[1,0.5]];portConstraint=eastwest;rotatable=0;whiteSpace=wrap;html=1;fontColor=#333333;" parent="Q-SCWLnYImMcxiPHVHH7-75" vertex="1">
          <mxGeometry y="120" width="140" height="30" as="geometry" />
        </mxCell>
        <mxCell id="Q-SCWLnYImMcxiPHVHH7-82" value="created_at" style="text;strokeColor=#666666;fillColor=#f5f5f5;align=left;verticalAlign=middle;spacingLeft=4;spacingRight=4;overflow=hidden;points=[[0,0.5],[1,0.5]];portConstraint=eastwest;rotatable=0;whiteSpace=wrap;html=1;fontColor=#333333;" parent="Q-SCWLnYImMcxiPHVHH7-75" vertex="1">
          <mxGeometry y="150" width="140" height="30" as="geometry" />
        </mxCell>
        <mxCell id="Q-SCWLnYImMcxiPHVHH7-81" value="created_by" style="text;strokeColor=#666666;fillColor=#f5f5f5;align=left;verticalAlign=middle;spacingLeft=4;spacingRight=4;overflow=hidden;points=[[0,0.5],[1,0.5]];portConstraint=eastwest;rotatable=0;whiteSpace=wrap;html=1;fontColor=#333333;" parent="Q-SCWLnYImMcxiPHVHH7-75" vertex="1">
          <mxGeometry y="180" width="140" height="30" as="geometry" />
        </mxCell>
        <mxCell id="Q-SCWLnYImMcxiPHVHH7-80" value="ip:" style="text;strokeColor=#666666;fillColor=#f5f5f5;align=left;verticalAlign=middle;spacingLeft=4;spacingRight=4;overflow=hidden;points=[[0,0.5],[1,0.5]];portConstraint=eastwest;rotatable=0;whiteSpace=wrap;html=1;fontColor=#333333;" parent="Q-SCWLnYImMcxiPHVHH7-75" vertex="1">
          <mxGeometry y="210" width="140" height="30" as="geometry" />
        </mxCell>
        <mxCell id="Q-SCWLnYImMcxiPHVHH7-85" value="permission" style="text;strokeColor=#666666;fillColor=#f5f5f5;align=left;verticalAlign=middle;spacingLeft=4;spacingRight=4;overflow=hidden;points=[[0,0.5],[1,0.5]];portConstraint=eastwest;rotatable=0;whiteSpace=wrap;html=1;fontColor=#333333;" parent="Q-SCWLnYImMcxiPHVHH7-75" vertex="1">
          <mxGeometry y="240" width="140" height="30" as="geometry" />
        </mxCell>
        <mxCell id="Q-SCWLnYImMcxiPHVHH7-79" value="data_status" style="text;strokeColor=#666666;fillColor=#f5f5f5;align=left;verticalAlign=middle;spacingLeft=4;spacingRight=4;overflow=hidden;points=[[0,0.5],[1,0.5]];portConstraint=eastwest;rotatable=0;whiteSpace=wrap;html=1;fontColor=#333333;" parent="Q-SCWLnYImMcxiPHVHH7-75" vertex="1">
          <mxGeometry y="270" width="140" height="34" as="geometry" />
        </mxCell>
        <mxCell id="Q-SCWLnYImMcxiPHVHH7-86" value="page_category" style="swimlane;fontStyle=0;childLayout=stackLayout;horizontal=1;startSize=30;horizontalStack=0;resizeParent=1;resizeParentMax=0;resizeLast=0;collapsible=1;marginBottom=0;whiteSpace=wrap;html=1;fillColor=#dae8fc;strokeColor=#6c8ebf;" parent="1" vertex="1">
          <mxGeometry x="-1450" y="2714" width="140" height="273" as="geometry" />
        </mxCell>
        <mxCell id="Q-SCWLnYImMcxiPHVHH7-87" value="category_id(pk)" style="text;strokeColor=#666666;fillColor=#f5f5f5;align=left;verticalAlign=middle;spacingLeft=4;spacingRight=4;overflow=hidden;points=[[0,0.5],[1,0.5]];portConstraint=eastwest;rotatable=0;whiteSpace=wrap;html=1;fontColor=#333333;" parent="Q-SCWLnYImMcxiPHVHH7-86" vertex="1">
          <mxGeometry y="30" width="140" height="30" as="geometry" />
        </mxCell>
        <mxCell id="Q-SCWLnYImMcxiPHVHH7-88" value="category_name" style="text;strokeColor=#666666;fillColor=#f5f5f5;align=left;verticalAlign=middle;spacingLeft=4;spacingRight=4;overflow=hidden;points=[[0,0.5],[1,0.5]];portConstraint=eastwest;rotatable=0;whiteSpace=wrap;html=1;fontColor=#333333;" parent="Q-SCWLnYImMcxiPHVHH7-86" vertex="1">
          <mxGeometry y="60" width="140" height="30" as="geometry" />
        </mxCell>
        <mxCell id="Q-SCWLnYImMcxiPHVHH7-95" value="updated_at" style="text;strokeColor=#666666;fillColor=#f5f5f5;align=left;verticalAlign=middle;spacingLeft=4;spacingRight=4;overflow=hidden;points=[[0,0.5],[1,0.5]];portConstraint=eastwest;rotatable=0;whiteSpace=wrap;html=1;fontColor=#333333;" parent="Q-SCWLnYImMcxiPHVHH7-86" vertex="1">
          <mxGeometry y="90" width="140" height="30" as="geometry" />
        </mxCell>
        <mxCell id="Q-SCWLnYImMcxiPHVHH7-94" value="updated_by" style="text;strokeColor=#666666;fillColor=#f5f5f5;align=left;verticalAlign=middle;spacingLeft=4;spacingRight=4;overflow=hidden;points=[[0,0.5],[1,0.5]];portConstraint=eastwest;rotatable=0;whiteSpace=wrap;html=1;fontColor=#333333;" parent="Q-SCWLnYImMcxiPHVHH7-86" vertex="1">
          <mxGeometry y="120" width="140" height="30" as="geometry" />
        </mxCell>
        <mxCell id="Q-SCWLnYImMcxiPHVHH7-93" value="created_at" style="text;strokeColor=#666666;fillColor=#f5f5f5;align=left;verticalAlign=middle;spacingLeft=4;spacingRight=4;overflow=hidden;points=[[0,0.5],[1,0.5]];portConstraint=eastwest;rotatable=0;whiteSpace=wrap;html=1;fontColor=#333333;" parent="Q-SCWLnYImMcxiPHVHH7-86" vertex="1">
          <mxGeometry y="150" width="140" height="30" as="geometry" />
        </mxCell>
        <mxCell id="Q-SCWLnYImMcxiPHVHH7-92" value="created_by" style="text;strokeColor=#666666;fillColor=#f5f5f5;align=left;verticalAlign=middle;spacingLeft=4;spacingRight=4;overflow=hidden;points=[[0,0.5],[1,0.5]];portConstraint=eastwest;rotatable=0;whiteSpace=wrap;html=1;fontColor=#333333;" parent="Q-SCWLnYImMcxiPHVHH7-86" vertex="1">
          <mxGeometry y="180" width="140" height="30" as="geometry" />
        </mxCell>
        <mxCell id="Q-SCWLnYImMcxiPHVHH7-91" value="ip:" style="text;strokeColor=#666666;fillColor=#f5f5f5;align=left;verticalAlign=middle;spacingLeft=4;spacingRight=4;overflow=hidden;points=[[0,0.5],[1,0.5]];portConstraint=eastwest;rotatable=0;whiteSpace=wrap;html=1;fontColor=#333333;" parent="Q-SCWLnYImMcxiPHVHH7-86" vertex="1">
          <mxGeometry y="210" width="140" height="30" as="geometry" />
        </mxCell>
        <mxCell id="Q-SCWLnYImMcxiPHVHH7-90" value="data_status" style="text;strokeColor=#666666;fillColor=#f5f5f5;align=left;verticalAlign=middle;spacingLeft=4;spacingRight=4;overflow=hidden;points=[[0,0.5],[1,0.5]];portConstraint=eastwest;rotatable=0;whiteSpace=wrap;html=1;fontColor=#333333;" parent="Q-SCWLnYImMcxiPHVHH7-86" vertex="1">
          <mxGeometry y="240" width="140" height="33" as="geometry" />
        </mxCell>
        <mxCell id="Q-SCWLnYImMcxiPHVHH7-106" value="page" style="swimlane;fontStyle=0;childLayout=stackLayout;horizontal=1;startSize=30;horizontalStack=0;resizeParent=1;resizeParentMax=0;resizeLast=0;collapsible=1;marginBottom=0;whiteSpace=wrap;html=1;fillColor=#dae8fc;strokeColor=#6c8ebf;" parent="1" vertex="1">
          <mxGeometry x="-1295" y="2714" width="140" height="517" as="geometry" />
        </mxCell>
        <mxCell id="Q-SCWLnYImMcxiPHVHH7-107" value="page_id (PK)" style="text;strokeColor=#666666;fillColor=#f5f5f5;align=left;verticalAlign=middle;spacingLeft=4;spacingRight=4;overflow=hidden;points=[[0,0.5],[1,0.5]];portConstraint=eastwest;rotatable=0;whiteSpace=wrap;html=1;fontColor=#333333;" parent="Q-SCWLnYImMcxiPHVHH7-106" vertex="1">
          <mxGeometry y="30" width="140" height="30" as="geometry" />
        </mxCell>
        <mxCell id="Q-SCWLnYImMcxiPHVHH7-108" value="category_id" style="text;strokeColor=#666666;fillColor=#f5f5f5;align=left;verticalAlign=middle;spacingLeft=4;spacingRight=4;overflow=hidden;points=[[0,0.5],[1,0.5]];portConstraint=eastwest;rotatable=0;whiteSpace=wrap;html=1;fontColor=#333333;" parent="Q-SCWLnYImMcxiPHVHH7-106" vertex="1">
          <mxGeometry y="60" width="140" height="30" as="geometry" />
        </mxCell>
        <mxCell id="Q-SCWLnYImMcxiPHVHH7-119" value="updated_at" style="text;strokeColor=#666666;fillColor=#f5f5f5;align=left;verticalAlign=middle;spacingLeft=4;spacingRight=4;overflow=hidden;points=[[0,0.5],[1,0.5]];portConstraint=eastwest;rotatable=0;whiteSpace=wrap;html=1;fontColor=#333333;" parent="Q-SCWLnYImMcxiPHVHH7-106" vertex="1">
          <mxGeometry y="90" width="140" height="30" as="geometry" />
        </mxCell>
        <mxCell id="Q-SCWLnYImMcxiPHVHH7-118" value="updated_by" style="text;strokeColor=#666666;fillColor=#f5f5f5;align=left;verticalAlign=middle;spacingLeft=4;spacingRight=4;overflow=hidden;points=[[0,0.5],[1,0.5]];portConstraint=eastwest;rotatable=0;whiteSpace=wrap;html=1;fontColor=#333333;" parent="Q-SCWLnYImMcxiPHVHH7-106" vertex="1">
          <mxGeometry y="120" width="140" height="30" as="geometry" />
        </mxCell>
        <mxCell id="Q-SCWLnYImMcxiPHVHH7-117" value="created_at" style="text;strokeColor=#666666;fillColor=#f5f5f5;align=left;verticalAlign=middle;spacingLeft=4;spacingRight=4;overflow=hidden;points=[[0,0.5],[1,0.5]];portConstraint=eastwest;rotatable=0;whiteSpace=wrap;html=1;fontColor=#333333;" parent="Q-SCWLnYImMcxiPHVHH7-106" vertex="1">
          <mxGeometry y="150" width="140" height="30" as="geometry" />
        </mxCell>
        <mxCell id="Q-SCWLnYImMcxiPHVHH7-116" value="created_by" style="text;strokeColor=#666666;fillColor=#f5f5f5;align=left;verticalAlign=middle;spacingLeft=4;spacingRight=4;overflow=hidden;points=[[0,0.5],[1,0.5]];portConstraint=eastwest;rotatable=0;whiteSpace=wrap;html=1;fontColor=#333333;" parent="Q-SCWLnYImMcxiPHVHH7-106" vertex="1">
          <mxGeometry y="180" width="140" height="30" as="geometry" />
        </mxCell>
        <mxCell id="Q-SCWLnYImMcxiPHVHH7-115" value="ip:" style="text;strokeColor=#666666;fillColor=#f5f5f5;align=left;verticalAlign=middle;spacingLeft=4;spacingRight=4;overflow=hidden;points=[[0,0.5],[1,0.5]];portConstraint=eastwest;rotatable=0;whiteSpace=wrap;html=1;fontColor=#333333;" parent="Q-SCWLnYImMcxiPHVHH7-106" vertex="1">
          <mxGeometry y="210" width="140" height="30" as="geometry" />
        </mxCell>
        <mxCell id="Q-SCWLnYImMcxiPHVHH7-114" value="data_status" style="text;strokeColor=#666666;fillColor=#f5f5f5;align=left;verticalAlign=middle;spacingLeft=4;spacingRight=4;overflow=hidden;points=[[0,0.5],[1,0.5]];portConstraint=eastwest;rotatable=0;whiteSpace=wrap;html=1;fontColor=#333333;" parent="Q-SCWLnYImMcxiPHVHH7-106" vertex="1">
          <mxGeometry y="240" width="140" height="34" as="geometry" />
        </mxCell>
        <mxCell id="Q-SCWLnYImMcxiPHVHH7-113" value="status" style="text;strokeColor=#666666;fillColor=#f5f5f5;align=left;verticalAlign=middle;spacingLeft=4;spacingRight=4;overflow=hidden;points=[[0,0.5],[1,0.5]];portConstraint=eastwest;rotatable=0;whiteSpace=wrap;html=1;fontColor=#333333;" parent="Q-SCWLnYImMcxiPHVHH7-106" vertex="1">
          <mxGeometry y="274" width="140" height="34" as="geometry" />
        </mxCell>
        <mxCell id="Q-SCWLnYImMcxiPHVHH7-120" value="website" style="text;strokeColor=#666666;fillColor=#f5f5f5;align=left;verticalAlign=middle;spacingLeft=4;spacingRight=4;overflow=hidden;points=[[0,0.5],[1,0.5]];portConstraint=eastwest;rotatable=0;whiteSpace=wrap;html=1;fontColor=#333333;" parent="Q-SCWLnYImMcxiPHVHH7-106" vertex="1">
          <mxGeometry y="308" width="140" height="30" as="geometry" />
        </mxCell>
        <mxCell id="Q-SCWLnYImMcxiPHVHH7-112" value="location" style="text;strokeColor=#666666;fillColor=#f5f5f5;align=left;verticalAlign=middle;spacingLeft=4;spacingRight=4;overflow=hidden;points=[[0,0.5],[1,0.5]];portConstraint=eastwest;rotatable=0;whiteSpace=wrap;html=1;fontColor=#333333;" parent="Q-SCWLnYImMcxiPHVHH7-106" vertex="1">
          <mxGeometry y="338" width="140" height="30" as="geometry" />
        </mxCell>
        <mxCell id="Q-SCWLnYImMcxiPHVHH7-121" value="profile_pic" style="text;strokeColor=#666666;fillColor=#f5f5f5;align=left;verticalAlign=middle;spacingLeft=4;spacingRight=4;overflow=hidden;points=[[0,0.5],[1,0.5]];portConstraint=eastwest;rotatable=0;whiteSpace=wrap;html=1;fontColor=#333333;" parent="Q-SCWLnYImMcxiPHVHH7-106" vertex="1">
          <mxGeometry y="368" width="140" height="30" as="geometry" />
        </mxCell>
        <mxCell id="Q-SCWLnYImMcxiPHVHH7-122" value="cover_pic" style="text;strokeColor=#666666;fillColor=#f5f5f5;align=left;verticalAlign=middle;spacingLeft=4;spacingRight=4;overflow=hidden;points=[[0,0.5],[1,0.5]];portConstraint=eastwest;rotatable=0;whiteSpace=wrap;html=1;fontColor=#333333;" parent="Q-SCWLnYImMcxiPHVHH7-106" vertex="1">
          <mxGeometry y="398" width="140" height="30" as="geometry" />
        </mxCell>
        <mxCell id="Q-SCWLnYImMcxiPHVHH7-111" value="slug" style="text;strokeColor=#666666;fillColor=#f5f5f5;align=left;verticalAlign=middle;spacingLeft=4;spacingRight=4;overflow=hidden;points=[[0,0.5],[1,0.5]];portConstraint=eastwest;rotatable=0;whiteSpace=wrap;html=1;fontColor=#333333;" parent="Q-SCWLnYImMcxiPHVHH7-106" vertex="1">
          <mxGeometry y="428" width="140" height="30" as="geometry" />
        </mxCell>
        <mxCell id="Q-SCWLnYImMcxiPHVHH7-110" value="page_description" style="text;strokeColor=#666666;fillColor=#f5f5f5;align=left;verticalAlign=middle;spacingLeft=4;spacingRight=4;overflow=hidden;points=[[0,0.5],[1,0.5]];portConstraint=eastwest;rotatable=0;whiteSpace=wrap;html=1;fontColor=#333333;" parent="Q-SCWLnYImMcxiPHVHH7-106" vertex="1">
          <mxGeometry y="458" width="140" height="29" as="geometry" />
        </mxCell>
        <mxCell id="Q-SCWLnYImMcxiPHVHH7-109" value="page_name" style="text;strokeColor=#666666;fillColor=#f5f5f5;align=left;verticalAlign=middle;spacingLeft=4;spacingRight=4;overflow=hidden;points=[[0,0.5],[1,0.5]];portConstraint=eastwest;rotatable=0;whiteSpace=wrap;html=1;fontColor=#333333;" parent="Q-SCWLnYImMcxiPHVHH7-106" vertex="1">
          <mxGeometry y="487" width="140" height="30" as="geometry" />
        </mxCell>
        <mxCell id="Q-SCWLnYImMcxiPHVHH7-123" value="page_like_follower" style="swimlane;fontStyle=0;childLayout=stackLayout;horizontal=1;startSize=30;horizontalStack=0;resizeParent=1;resizeParentMax=0;resizeLast=0;collapsible=1;marginBottom=0;whiteSpace=wrap;html=1;fillColor=#dae8fc;strokeColor=#6c8ebf;" parent="1" vertex="1">
          <mxGeometry x="-1131" y="2714" width="140" height="364" as="geometry" />
        </mxCell>
        <mxCell id="Q-SCWLnYImMcxiPHVHH7-125" value="record_id (pk)" style="text;strokeColor=#666666;fillColor=#f5f5f5;align=left;verticalAlign=middle;spacingLeft=4;spacingRight=4;overflow=hidden;points=[[0,0.5],[1,0.5]];portConstraint=eastwest;rotatable=0;whiteSpace=wrap;html=1;fontColor=#333333;" parent="Q-SCWLnYImMcxiPHVHH7-123" vertex="1">
          <mxGeometry y="30" width="140" height="30" as="geometry" />
        </mxCell>
        <mxCell id="Q-SCWLnYImMcxiPHVHH7-124" value="page_id (fk)" style="text;strokeColor=#666666;fillColor=#f5f5f5;align=left;verticalAlign=middle;spacingLeft=4;spacingRight=4;overflow=hidden;points=[[0,0.5],[1,0.5]];portConstraint=eastwest;rotatable=0;whiteSpace=wrap;html=1;fontColor=#333333;" parent="Q-SCWLnYImMcxiPHVHH7-123" vertex="1">
          <mxGeometry y="60" width="140" height="30" as="geometry" />
        </mxCell>
        <mxCell id="Q-SCWLnYImMcxiPHVHH7-139" value="updated_at" style="text;strokeColor=#666666;fillColor=#f5f5f5;align=left;verticalAlign=middle;spacingLeft=4;spacingRight=4;overflow=hidden;points=[[0,0.5],[1,0.5]];portConstraint=eastwest;rotatable=0;whiteSpace=wrap;html=1;fontColor=#333333;" parent="Q-SCWLnYImMcxiPHVHH7-123" vertex="1">
          <mxGeometry y="90" width="140" height="30" as="geometry" />
        </mxCell>
        <mxCell id="Q-SCWLnYImMcxiPHVHH7-138" value="updated_by" style="text;strokeColor=#666666;fillColor=#f5f5f5;align=left;verticalAlign=middle;spacingLeft=4;spacingRight=4;overflow=hidden;points=[[0,0.5],[1,0.5]];portConstraint=eastwest;rotatable=0;whiteSpace=wrap;html=1;fontColor=#333333;" parent="Q-SCWLnYImMcxiPHVHH7-123" vertex="1">
          <mxGeometry y="120" width="140" height="30" as="geometry" />
        </mxCell>
        <mxCell id="Q-SCWLnYImMcxiPHVHH7-137" value="created_at" style="text;strokeColor=#666666;fillColor=#f5f5f5;align=left;verticalAlign=middle;spacingLeft=4;spacingRight=4;overflow=hidden;points=[[0,0.5],[1,0.5]];portConstraint=eastwest;rotatable=0;whiteSpace=wrap;html=1;fontColor=#333333;" parent="Q-SCWLnYImMcxiPHVHH7-123" vertex="1">
          <mxGeometry y="150" width="140" height="30" as="geometry" />
        </mxCell>
        <mxCell id="Q-SCWLnYImMcxiPHVHH7-136" value="created_by" style="text;strokeColor=#666666;fillColor=#f5f5f5;align=left;verticalAlign=middle;spacingLeft=4;spacingRight=4;overflow=hidden;points=[[0,0.5],[1,0.5]];portConstraint=eastwest;rotatable=0;whiteSpace=wrap;html=1;fontColor=#333333;" parent="Q-SCWLnYImMcxiPHVHH7-123" vertex="1">
          <mxGeometry y="180" width="140" height="30" as="geometry" />
        </mxCell>
        <mxCell id="Q-SCWLnYImMcxiPHVHH7-134" value="data_status" style="text;strokeColor=#666666;fillColor=#f5f5f5;align=left;verticalAlign=middle;spacingLeft=4;spacingRight=4;overflow=hidden;points=[[0,0.5],[1,0.5]];portConstraint=eastwest;rotatable=0;whiteSpace=wrap;html=1;fontColor=#333333;" parent="Q-SCWLnYImMcxiPHVHH7-123" vertex="1">
          <mxGeometry y="210" width="140" height="34" as="geometry" />
        </mxCell>
        <mxCell id="Q-SCWLnYImMcxiPHVHH7-135" value="ip:" style="text;strokeColor=#666666;fillColor=#f5f5f5;align=left;verticalAlign=middle;spacingLeft=4;spacingRight=4;overflow=hidden;points=[[0,0.5],[1,0.5]];portConstraint=eastwest;rotatable=0;whiteSpace=wrap;html=1;fontColor=#333333;" parent="Q-SCWLnYImMcxiPHVHH7-123" vertex="1">
          <mxGeometry y="244" width="140" height="30" as="geometry" />
        </mxCell>
        <mxCell id="jYQdoo0Zff-4ryKH4e4E-5" value="is_followed" style="text;strokeColor=#666666;fillColor=#f5f5f5;align=left;verticalAlign=middle;spacingLeft=4;spacingRight=4;overflow=hidden;points=[[0,0.5],[1,0.5]];portConstraint=eastwest;rotatable=0;whiteSpace=wrap;html=1;fontColor=#333333;" parent="Q-SCWLnYImMcxiPHVHH7-123" vertex="1">
          <mxGeometry y="274" width="140" height="30" as="geometry" />
        </mxCell>
        <mxCell id="Q-SCWLnYImMcxiPHVHH7-127" value="is_liked" style="text;strokeColor=#666666;fillColor=#f5f5f5;align=left;verticalAlign=middle;spacingLeft=4;spacingRight=4;overflow=hidden;points=[[0,0.5],[1,0.5]];portConstraint=eastwest;rotatable=0;whiteSpace=wrap;html=1;fontColor=#333333;" parent="Q-SCWLnYImMcxiPHVHH7-123" vertex="1">
          <mxGeometry y="304" width="140" height="30" as="geometry" />
        </mxCell>
        <mxCell id="Q-SCWLnYImMcxiPHVHH7-126" value="user_id" style="text;strokeColor=#666666;fillColor=#f5f5f5;align=left;verticalAlign=middle;spacingLeft=4;spacingRight=4;overflow=hidden;points=[[0,0.5],[1,0.5]];portConstraint=eastwest;rotatable=0;whiteSpace=wrap;html=1;fontColor=#333333;" parent="Q-SCWLnYImMcxiPHVHH7-123" vertex="1">
          <mxGeometry y="334" width="140" height="30" as="geometry" />
        </mxCell>
        <mxCell id="Q-SCWLnYImMcxiPHVHH7-151" value="Privacy" style="swimlane;fontStyle=0;childLayout=stackLayout;horizontal=1;startSize=30;horizontalStack=0;resizeParent=1;resizeParentMax=0;resizeLast=0;collapsible=1;marginBottom=0;whiteSpace=wrap;html=1;fillColor=#dae8fc;strokeColor=#6c8ebf;" parent="1" vertex="1">
          <mxGeometry x="-1031" y="1216" width="140" height="274" as="geometry" />
        </mxCell>
        <mxCell id="Q-SCWLnYImMcxiPHVHH7-152" value="privacy_id(pk)" style="text;strokeColor=#666666;fillColor=#f5f5f5;align=left;verticalAlign=middle;spacingLeft=4;spacingRight=4;overflow=hidden;points=[[0,0.5],[1,0.5]];portConstraint=eastwest;rotatable=0;whiteSpace=wrap;html=1;fontColor=#333333;" parent="Q-SCWLnYImMcxiPHVHH7-151" vertex="1">
          <mxGeometry y="30" width="140" height="30" as="geometry" />
        </mxCell>
        <mxCell id="Q-SCWLnYImMcxiPHVHH7-153" value="privacy_name" style="text;strokeColor=#666666;fillColor=#f5f5f5;align=left;verticalAlign=middle;spacingLeft=4;spacingRight=4;overflow=hidden;points=[[0,0.5],[1,0.5]];portConstraint=eastwest;rotatable=0;whiteSpace=wrap;html=1;fontColor=#333333;" parent="Q-SCWLnYImMcxiPHVHH7-151" vertex="1">
          <mxGeometry y="60" width="140" height="30" as="geometry" />
        </mxCell>
        <mxCell id="Q-SCWLnYImMcxiPHVHH7-154" value="data_status" style="text;strokeColor=#666666;fillColor=#f5f5f5;align=left;verticalAlign=middle;spacingLeft=4;spacingRight=4;overflow=hidden;points=[[0,0.5],[1,0.5]];portConstraint=eastwest;rotatable=0;whiteSpace=wrap;html=1;fontColor=#333333;" parent="Q-SCWLnYImMcxiPHVHH7-151" vertex="1">
          <mxGeometry y="90" width="140" height="34" as="geometry" />
        </mxCell>
        <mxCell id="Q-SCWLnYImMcxiPHVHH7-155" value="ip:" style="text;strokeColor=#666666;fillColor=#f5f5f5;align=left;verticalAlign=middle;spacingLeft=4;spacingRight=4;overflow=hidden;points=[[0,0.5],[1,0.5]];portConstraint=eastwest;rotatable=0;whiteSpace=wrap;html=1;fontColor=#333333;" parent="Q-SCWLnYImMcxiPHVHH7-151" vertex="1">
          <mxGeometry y="124" width="140" height="30" as="geometry" />
        </mxCell>
        <mxCell id="Q-SCWLnYImMcxiPHVHH7-156" value="created_by" style="text;strokeColor=#666666;fillColor=#f5f5f5;align=left;verticalAlign=middle;spacingLeft=4;spacingRight=4;overflow=hidden;points=[[0,0.5],[1,0.5]];portConstraint=eastwest;rotatable=0;whiteSpace=wrap;html=1;fontColor=#333333;" parent="Q-SCWLnYImMcxiPHVHH7-151" vertex="1">
          <mxGeometry y="154" width="140" height="30" as="geometry" />
        </mxCell>
        <mxCell id="Q-SCWLnYImMcxiPHVHH7-157" value="created_at" style="text;strokeColor=#666666;fillColor=#f5f5f5;align=left;verticalAlign=middle;spacingLeft=4;spacingRight=4;overflow=hidden;points=[[0,0.5],[1,0.5]];portConstraint=eastwest;rotatable=0;whiteSpace=wrap;html=1;fontColor=#333333;" parent="Q-SCWLnYImMcxiPHVHH7-151" vertex="1">
          <mxGeometry y="184" width="140" height="30" as="geometry" />
        </mxCell>
        <mxCell id="Q-SCWLnYImMcxiPHVHH7-158" value="updated_by" style="text;strokeColor=#666666;fillColor=#f5f5f5;align=left;verticalAlign=middle;spacingLeft=4;spacingRight=4;overflow=hidden;points=[[0,0.5],[1,0.5]];portConstraint=eastwest;rotatable=0;whiteSpace=wrap;html=1;fontColor=#333333;" parent="Q-SCWLnYImMcxiPHVHH7-151" vertex="1">
          <mxGeometry y="214" width="140" height="30" as="geometry" />
        </mxCell>
        <mxCell id="Q-SCWLnYImMcxiPHVHH7-159" value="updated_at" style="text;strokeColor=#666666;fillColor=#f5f5f5;align=left;verticalAlign=middle;spacingLeft=4;spacingRight=4;overflow=hidden;points=[[0,0.5],[1,0.5]];portConstraint=eastwest;rotatable=0;whiteSpace=wrap;html=1;fontColor=#333333;" parent="Q-SCWLnYImMcxiPHVHH7-151" vertex="1">
          <mxGeometry y="244" width="140" height="30" as="geometry" />
        </mxCell>
      </root>
    </mxGraphModel>
  </diagram>
</mxfile>
